<svg id="leaf" xmlns="http://www.w3.org/2000/svg" xmlns:xlink="http://www.w3.org/1999/xlink" width="176" height="72" viewBox="0 0 176 72">
  <defs>
    <clipPath id="clip-path">
      <path id="Path_13170" data-name="Path 13170" d="M1,.645C1,2.045.436,3.3.605,4.757c1.266.283,2.712.314,4.036.591,2.674.56,5.166,1.761,7.816,2.422,3.509.872,6.8,2.283,10.282,3.2a77.809,77.809,0,0,1,10.4,3.391c2.579,1.1,5.556,2.064,6.509,4.878a8.262,8.262,0,0,1,.275,2.985,32.114,32.114,0,0,0,.393,3.568,12.359,12.359,0,0,0,.9,3.951,20.735,20.735,0,0,0,2.6,3.289,49.528,49.528,0,0,0,3.2,3.865c2.876,3.073,5.7,6.145,8.7,9.1,1.59,1.562,3.045,3.208,4.749,4.665,1.6,1.365,3.313,2.577,4.987,3.852,1.486,1.13,3.147,2.049,4.7,3.113a65.345,65.345,0,0,0,17.778,8.515c1.952.6,3.926,1.274,5.9,1.792,1.73.453,3.524.568,5.285.865,2.635.449,5.339.761,7.96,1.257,2.216.418,4.354.261,6.587.531a55.476,55.476,0,0,0,14.977.086c2.279-.349,4.679-.286,6.879-1.009,1.294-.427,2.458-1.1,3.79-1.46,1.119-.3,2.27-.5,3.4-.768,5.87-1.4,11.5-3.548,17.452-4.634,3.106-.568,6.217-1.232,9.359-1.566a31,31,0,0,0,5.906-.734,21.215,21.215,0,0,0-3.012-.83,43.24,43.24,0,0,1-6.124-2.215,40.12,40.12,0,0,1-9.48-5.593c-3.028-2.522-5.9-5.082-9.159-7.331-3.529-2.434-6.975-4.982-10.549-7.353-5.027-3.336-10.241-6.489-15.37-9.674a171.886,171.886,0,0,0-17.7-9.752,57.016,57.016,0,0,0-8.386-3.643C91.717,13,87.8,11.917,83.839,10.911c-3.021-.765-6.023-1.345-9.077-1.96C71.513,8.3,68.06,7.4,64.747,7.374c-2.179-.016-4.365.542-6.567.6-2.306.055-4.507.672-6.783.951a36.016,36.016,0,0,0-3.881.316,20.537,20.537,0,0,1-2.024.5c-1.324.2-2.643.522-3.471.63a28.669,28.669,0,0,1-7.662-1.188c-1.546-.453-2.971-1.1-4.479-1.637-2.227-.8-4.483-1.633-6.734-2.352-1.728-.551-3.561-.675-5.235-1.369a36.052,36.052,0,0,0-8.438-2c-1.6-.237-3.214-.4-4.824-.6A26.188,26.188,0,0,0,1.514.574H1.473A1.614,1.614,0,0,0,1,.645" fill="none"/>
    </clipPath>
    <clipPath id="clip-path-2">
      <rect id="Rectangle_368" data-name="Rectangle 368" width="176" height="72" fill="none"/>
    </clipPath>
  </defs>
  <g id="Group_389" data-name="Group 389">
    <g id="Group_388" data-name="Group 388" clip-path="url(#clip-path)">
      <path id="Path_13123" data-name="Path 13123" d="M42.024,10.369a28.533,28.533,0,0,1-7.66-1.186c-1.548-.453-2.972-1.1-4.481-1.639-2.227-.8-4.481-1.633-6.734-2.351-1.728-.551-3.559-.677-5.235-1.371a36.1,36.1,0,0,0-8.438-2c-1.606-.237-3.217-.4-4.826-.6C3.686,1.1,1.918.341,1,.645,1,2.045.436,3.3.607,4.755c1.265.285,2.712.316,4.034.593,2.674.558,5.168,1.761,7.818,2.42,3.507.874,6.8,2.283,10.28,3.2a77.962,77.962,0,0,1,10.4,3.393c2.579,1.1,5.554,2.062,6.507,4.878a8.263,8.263,0,0,1,.278,2.985,31.875,31.875,0,0,0,.391,3.568,12.3,12.3,0,0,0,.905,3.951,20.8,20.8,0,0,0,2.594,3.289,49.452,49.452,0,0,0,3.21,3.868c2.874,3.073,5.7,6.145,8.7,9.094,1.59,1.564,3.045,3.21,4.747,4.665,1.6,1.367,3.315,2.579,4.989,3.852,1.484,1.131,3.146,2.051,4.7,3.113a65.272,65.272,0,0,0,17.778,8.515c1.95.606,3.924,1.274,5.9,1.792,1.73.454,3.524.568,5.284.867,2.635.449,5.339.761,7.962,1.257,2.214.418,4.354.259,6.587.531a55.5,55.5,0,0,0,14.975.086c2.278-.352,4.684-.285,6.882-1.009,1.294-.427,2.46-1.1,3.792-1.46,1.119-.3,2.268-.5,3.4-.768,5.87-1.4,11.5-3.546,17.452-4.634,3.1-.566,6.217-1.23,9.358-1.566a30.984,30.984,0,0,0,5.906-.732,21.479,21.479,0,0,0-3.011-.832,43.085,43.085,0,0,1-6.125-2.215,40.158,40.158,0,0,1-9.478-5.592c-3.03-2.522-5.9-5.084-9.161-7.333-3.529-2.433-6.975-4.98-10.547-7.353-5.028-3.334-10.243-6.488-15.37-9.672a171.99,171.99,0,0,0-17.7-9.752,57.147,57.147,0,0,0-8.384-3.643c-3.933-1.111-7.848-2.2-11.813-3.2-3.019-.763-6.023-1.343-9.077-1.958-3.241-.653-6.693-1.558-10-1.582-2.181-.018-4.367.542-6.569.6-2.306.057-4.505.672-6.783.953a35.7,35.7,0,0,0-3.879.314,20.428,20.428,0,0,1-2.026.5C44.17,9.936,42.85,10.261,42.024,10.369Z" fill="none" stroke="#241109" stroke-linecap="round" stroke-linejoin="round" stroke-width="0.5"/>
      <path id="Path_13124" data-name="Path 13124" d="M163.7,56.516c-.812-.111-4.725-1.31-5.528-1.409a76.852,76.852,0,0,1-12.5-2.571c-4.76-1.4-9.541-2.79-14.245-4.363-2.641-.883-5.436-1.672-7.978-2.8-2.322-1.033-4.546-2.119-6.952-2.973-4.881-1.739-9.943-2.925-14.8-4.707s-10.085-2.877-14.812-5a133.834,133.834,0,0,0-17.575-6.413c-4.641-1.343-9.07-3.055-13.616-4.644-2.691-.943-5.224-2.36-7.82-3.524-3.663-1.641-10.262-6.7-13.51-8.929" fill="none" stroke="#241109" stroke-linecap="round" stroke-linejoin="round" stroke-width="0.5"/>
      <path id="Path_13125" data-name="Path 13125" d="M37.374,16.732c1.086-.394,2.917.615,3.911.929,1.564.5,3.1,1.062,4.662,1.579a84.476,84.476,0,0,1,8.632,3.905c8.347,3.862,16.8,7.391,25.153,11.251,2.861,1.323,5.691,2.869,8.662,3.942,2.563.925,5.209,1.606,7.761,2.575,3.71,1.405,7.28,3.04,10.921,4.608a117.93,117.93,0,0,0,12.143,4.245c2.745.843,5.481,1.666,8.245,2.444a57.67,57.67,0,0,1,6.414,2.617c1.3.537,2.736.783,4.08,1.192,1.7.518,3.391,1.06,5.118,1.5,2.371.6,4.833,1.661,7.295,1.838A54.174,54.174,0,0,1,156.8,60.4c1.7.33,3.477.347,5.209.573,1.225.159,6.327.221,7.507.268" fill="none" stroke="#241109" stroke-linecap="round" stroke-linejoin="round" stroke-width="0.5"/>
      <path id="Path_13126" data-name="Path 13126" d="M40.419,13.692a14.35,14.35,0,0,1,3.086-2.7,12.941,12.941,0,0,1,2.544-1.343c.821-.367,1.764-.52,2.643-.83" fill="none" stroke="#241109" stroke-linecap="round" stroke-linejoin="round" stroke-width="0.5"/>
      <path id="Path_13127" data-name="Path 13127" d="M42.868,15.983c.173-.316.589-.493.883-.69.873-.58,1.767-1.126,2.68-1.646,1.963-1.119,4-2.152,5.943-3.289a22.37,22.37,0,0,1,3.2-1.681,5.331,5.331,0,0,1,1.155-.212c.3-.055.518-.234.818-.2" fill="none" stroke="#241109" stroke-linecap="round" stroke-linejoin="round" stroke-width="0.5"/>
      <path id="Path_13128" data-name="Path 13128" d="M47.71,18.227l-.136-.2c1.14-1.06,2.654-1.621,3.913-2.546,1.108-.818,2.175-1.566,3.334-2.318,1.685-1.1,3.41-2.132,5.094-3.221A15.78,15.78,0,0,1,65.2,7.8a11.637,11.637,0,0,1,2.62-.58" fill="none" stroke="#241109" stroke-linecap="round" stroke-linejoin="round" stroke-width="0.5"/>
      <path id="Path_13129" data-name="Path 13129" d="M51.213,19.556q.6.183.98-.527,1.653-1.236,3.379-2.373a70.479,70.479,0,0,1,6.1-4.137,29.84,29.84,0,0,1,4.5-2.36c1.49-.529,2.745-1.336,4.354-1.427a10.351,10.351,0,0,1,3.084,0" fill="none" stroke="#241109" stroke-linecap="round" stroke-linejoin="round" stroke-width="0.5"/>
      <path id="Path_13130" data-name="Path 13130" d="M79.375,9.664c-2.216.8-4.516,1.27-6.7,2.2-2.633,1.117-5.23,2.292-7.9,3.329a17.985,17.985,0,0,0-5.731,3.435,19.324,19.324,0,0,0-2.786,2.639l-.216-.051" fill="none" stroke="#241109" stroke-linecap="round" stroke-linejoin="round" stroke-width="0.5"/>
      <path id="Path_13131" data-name="Path 13131" d="M59.661,22.3c.708.318,1.939-.5,2.524-.814a51.9,51.9,0,0,0,5.9-3.175c1.529-1.115,3.116-2.013,4.7-3.042a11.019,11.019,0,0,1,3.019-1.58c1.216-.369,2.417-.788,3.641-1.137,1.242-.354,2.512-.511,3.762-.838.706-.184,1.421-.294,2.129-.451.549-.122,1.086-.5,1.611-.128" fill="none" stroke="#241109" stroke-linecap="round" stroke-linejoin="round" stroke-width="0.5"/>
      <path id="Path_13132" data-name="Path 13132" d="M89.732,12.135l.22.113c-1.747,1.214-3.719,2.181-5.542,3.294a17,17,0,0,1-4.757,2.015,64.791,64.791,0,0,0-8.82,3.053,18.33,18.33,0,0,0-2.871,1.117c-.628.407-1.117.947-1.784,1.308a8.89,8.89,0,0,0-2.034,1.635" fill="none" stroke="#241109" stroke-linecap="round" stroke-linejoin="round" stroke-width="0.5"/>
      <path id="Path_13133" data-name="Path 13133" d="M68.48,25.513a2.008,2.008,0,0,1,.726-.579c.974-.639,1.931-1.277,2.948-1.852,1.838-1.038,3.674-2.071,5.481-3.161a24.394,24.394,0,0,1,6.706-2.995,62.161,62.161,0,0,1,7.3-1.228c2.579-.328,5.474-1.672,8.09-.969" fill="none" stroke="#241109" stroke-linecap="round" stroke-linejoin="round" stroke-width="0.5"/>
      <path id="Path_13134" data-name="Path 13134" d="M71.983,26.844c.371-.566,1.777-.765,2.388-.987,2.125-.777,4.081-1.883,6.133-2.82a30.317,30.317,0,0,1,2.814-1.184c.754-.257,1.553-.35,2.3-.622a25.577,25.577,0,0,1,8.1-2.015,25.536,25.536,0,0,0,3.661-.533c1.276-.221,2.55-.3,3.838-.438a37.79,37.79,0,0,1,3.909-.172,5.753,5.753,0,0,0,1.63-.095" fill="none" stroke="#241109" stroke-linecap="round" stroke-linejoin="round" stroke-width="0.5"/>
      <path id="Path_13135" data-name="Path 13135" d="M77.054,28.611c.309.182.689-.042,1-.126,1.265-.35,2.524-.717,3.76-1.15,2.054-.719,4.112-1.179,6.2-1.757,1.428-.394,2.868-.675,4.313-1C93.75,24.26,95.1,23.751,96.5,23.4c3.634-.916,7.09-2.194,10.871-2.537,1.361-.122,2.74-.3,4.107-.35a2.057,2.057,0,0,1,1.084.159" fill="none" stroke="#241109" stroke-linecap="round" stroke-linejoin="round" stroke-width="0.5"/>
      <path id="Path_13136" data-name="Path 13136" d="M83.336,30.937c1.812-.865,3.544-2.048,5.52-2.507a20.138,20.138,0,0,0,3.937-1.108,26.554,26.554,0,0,1,4.5-1.329c1.307-.334,2.557-.754,3.891-1.009,1.3-.25,2.583-.537,3.876-.812a46.951,46.951,0,0,1,4.872-1.121,17.742,17.742,0,0,1,3.742.142,5.864,5.864,0,0,1,2.19.453" fill="none" stroke="#241109" stroke-linecap="round" stroke-linejoin="round" stroke-width="0.5"/>
      <path id="Path_13137" data-name="Path 13137" d="M86.867,33.442c1.244-1.708,4-2.172,5.885-2.692,2.365-.652,4.825-.985,7.224-1.544a84.646,84.646,0,0,1,8.75-1.635,25.658,25.658,0,0,1,5.777.089c1.568.159,3.088.6,4.656.71a19.711,19.711,0,0,1,2.911.243c.272.06.494.243.752.3.229.049.359-.088.587-.049.33.055.661.358.989.46a6.163,6.163,0,0,0,2.023.078" fill="none" stroke="#241109" stroke-linecap="round" stroke-linejoin="round" stroke-width="0.5"/>
      <path id="Path_13138" data-name="Path 13138" d="M92.167,34.733c.022-.255.168-.325.35-.5a17.287,17.287,0,0,1,3.745-2.1,22.574,22.574,0,0,1,5.915-2.573c2.762-.566,5.805-.068,8.552.418.86.151,1.766.376,2.628.442,1.093.084,2.283-.172,3.375-.19,1.117-.018,2.233-.046,3.35-.075a24.481,24.481,0,0,1,9.142,1.42" fill="none" stroke="#241109" stroke-linecap="round" stroke-linejoin="round" stroke-width="0.5"/>
      <path id="Path_13139" data-name="Path 13139" d="M96.512,36.159c.335-.416,1.875-.442,2.41-.589a25.837,25.837,0,0,1,2.993-.929,17.812,17.812,0,0,0,1.976-.3,42.659,42.659,0,0,1,10.318-1.6,49.148,49.148,0,0,1,5.135.1c.995.1,1.955.391,2.939.557.931.159,1.877.151,2.812.3,1.967.31,3.956.52,5.917.86,1.222.21,3,.181,4.053.87" fill="none" stroke="#241109" stroke-linecap="round" stroke-linejoin="round" stroke-width="0.5"/>
      <path id="Path_13140" data-name="Path 13140" d="M101.826,38.042c.8-.172,1.7-.126,2.5-.243,1.27-.182,2.524-.464,3.8-.579a51.857,51.857,0,0,1,5.561.161,41.964,41.964,0,0,0,5.19-.458c1.913-.206,3.8-.117,5.7-.369,1.255-.168,2.546-.2,3.81-.266a13.412,13.412,0,0,1,1.758.08c.788.062,1.615-.124,2.393-.02,1.1.146,2.291.312,3.378.558a6.893,6.893,0,0,0,1.816.343" fill="none" stroke="#241109" stroke-linecap="round" stroke-linejoin="round" stroke-width="0.5"/>
      <path id="Path_13141" data-name="Path 13141" d="M112.44,41.211l-.22-.1A18.4,18.4,0,0,1,117,40.193a62.485,62.485,0,0,1,6.742-.7c2.831-.042,5.63-.568,8.457-.686a26.114,26.114,0,0,1,5.881.407c1.432.283,2.863.363,4.278.754" fill="none" stroke="#241109" stroke-linecap="round" stroke-linejoin="round" stroke-width="0.5"/>
      <path id="Path_13142" data-name="Path 13142" d="M119.674,43.4a1.288,1.288,0,0,1,1.24-.3q1.357-.085,2.714-.193c1.974-.151,3.937-.387,5.906-.586a60.675,60.675,0,0,1,6.857-.422,42.406,42.406,0,0,1,4.8.429c1.652.212,3.293.721,4.95.836" fill="none" stroke="#241109" stroke-linecap="round" stroke-linejoin="round" stroke-width="0.5"/>
      <path id="Path_13143" data-name="Path 13143" d="M125,45.863a.841.841,0,0,0,.715-.177,12.117,12.117,0,0,1,2.674-.442c1.63-.137,3.289-.281,4.922-.336,2.417-.082,4.863-.166,7.28-.1,3.479.1,7.226-.241,10.4,1.184" fill="none" stroke="#241109" stroke-linecap="round" stroke-linejoin="round" stroke-width="0.5"/>
      <path id="Path_13144" data-name="Path 13144" d="M132.266,49.225a20.816,20.816,0,0,0,3.812-.987,11.264,11.264,0,0,1,3.7-.372c2.052.146,4.222-.04,6.291-.08,1.747-.035,3.5-.31,5.244-.431a12.529,12.529,0,0,1,1.875.159,4.594,4.594,0,0,1,1.2.051" fill="none" stroke="#241109" stroke-linecap="round" stroke-linejoin="round" stroke-width="0.5"/>
      <path id="Path_13145" data-name="Path 13145" d="M140.573,51.037c1.793-.358,3.637-.531,5.442-.839a30.6,30.6,0,0,1,4.814-.777,14.334,14.334,0,0,1,2.851.21,7.072,7.072,0,0,1,2.684.589" fill="none" stroke="#241109" stroke-linecap="round" stroke-linejoin="round" stroke-width="0.5"/>
      <path id="Path_13146" data-name="Path 13146" d="M148.4,52.625a5.147,5.147,0,0,0,2.527-.175c1.289-.316,2.551-.422,3.848-.63a7.444,7.444,0,0,1,4.514.33" fill="none" stroke="#241109" stroke-linecap="round" stroke-linejoin="round" stroke-width="0.5"/>
      <path id="Path_13147" data-name="Path 13147" d="M42.68,18.218a1.385,1.385,0,0,0-.086.814c.069,1.06.222,2.1.24,3.168.022,1.308.188,2.611.212,3.918a8.953,8.953,0,0,0,.177,2c.24,1.02.363,2.077.611,3.081.21.854.976,1.462,1.319,2.3a7.965,7.965,0,0,0,.374.914c.117.21.248.327.343.537.115.254.06.526.207.8" fill="none" stroke="#241109" stroke-linecap="round" stroke-linejoin="round" stroke-width="0.5"/>
      <path id="Path_13148" data-name="Path 13148" d="M45.686,18.735c1.244,2.615.832,5.75,1.784,8.477a26.726,26.726,0,0,1,1.253,5.564,41.846,41.846,0,0,0,.7,5.407c.177.684.231,2.3,1.08,2.511" fill="none" stroke="#241109" stroke-linecap="round" stroke-linejoin="round" stroke-width="0.5"/>
      <path id="Path_13149" data-name="Path 13149" d="M50.4,20.63a1.507,1.507,0,0,0-.169,1.093q.094,1.682.147,3.365a39.73,39.73,0,0,0,.5,5.955c.313,1.745.777,3.449,1.015,5.207a13.273,13.273,0,0,0,1.181,4.457,21.076,21.076,0,0,1,.864,2.226c.2.52.266,1.681.734,2.017" fill="none" stroke="#241109" stroke-linecap="round" stroke-linejoin="round" stroke-width="0.5"/>
      <path id="Path_13150" data-name="Path 13150" d="M53.188,22.212a3,3,0,0,1,.244,1.381c.114,1.27.279,2.531.35,3.8a19.843,19.843,0,0,0,.877,4.334,22.043,22.043,0,0,1,1.084,4.838,12.3,12.3,0,0,0,.713,4.039c.76,2.028,1.06,4.225,1.818,6.256.261.7,1.184,1.819,1.049,2.56" fill="none" stroke="#241109" stroke-linecap="round" stroke-linejoin="round" stroke-width="0.5"/>
      <path id="Path_13151" data-name="Path 13151" d="M56.951,24.242c.508,2.345.659,4.756,1.08,7.119.237,1.332.259,2.639.449,3.975a31.668,31.668,0,0,0,.872,4.225c.359,1.245.559,2.422.812,3.688.4,2.024,1.445,3.911,1.941,5.924.408,1.657.715,3.564,1.762,4.964" fill="none" stroke="#241109" stroke-linecap="round" stroke-linejoin="round" stroke-width="0.5"/>
      <path id="Path_13152" data-name="Path 13152" d="M61.41,25.435c-.061.354.237.737.369,1.062a16.394,16.394,0,0,1,.777,4.057c.378,2.765.4,5.557,1.037,8.274.868,3.714,1.8,7.418,2.656,11.128a19.494,19.494,0,0,0,2.62,5.807c.326.522,1.227,1.743,1.076,2.347" fill="none" stroke="#241109" stroke-linecap="round" stroke-linejoin="round" stroke-width="0.5"/>
      <path id="Path_13153" data-name="Path 13153" d="M66.151,28.5c-.615.339-.047,2.608-.052,2.577a54.505,54.505,0,0,0,1.62,7.71c1.2,3.962,3.049,7.785,3.917,11.824.639,2.971,1.52,5.953,2.453,8.847a14.508,14.508,0,0,0,1.453,2.4" fill="none" stroke="#241109" stroke-linecap="round" stroke-linejoin="round" stroke-width="0.5"/>
      <path id="Path_13154" data-name="Path 13154" d="M70.383,30.165l-.229-.133c-.423.752-.1,2.343-.015,3.037a46.342,46.342,0,0,0,.777,4.573A99.739,99.739,0,0,0,74.044,47.4c1.326,3.929,2.244,8.59,5.1,11.789a49.514,49.514,0,0,1,3.073,4.037c.294.405.585.684.857,1.108a4.439,4.439,0,0,0,1.3,1.325" fill="none" stroke="#241109" stroke-linecap="round" stroke-linejoin="round" stroke-width="0.5"/>
      <path id="Path_13155" data-name="Path 13155" d="M74.512,32.658c-.624.943.372,3.234.624,4.1.516,1.763,1.175,3.451,1.775,5.186a30.94,30.94,0,0,0,2.124,5.283,48.305,48.305,0,0,1,2.732,5.879c.857,2.17,1.138,4.555,2.222,6.634.78,1.5,1.685,2.907,2.414,4.44a7.279,7.279,0,0,0,2.25,2.933l-.05.21" fill="none" stroke="#241109" stroke-linecap="round" stroke-linejoin="round" stroke-width="0.5"/>
      <path id="Path_13156" data-name="Path 13156" d="M78.972,33.85a4.982,4.982,0,0,0,.38,1.909c.337,1.281.669,2.564,1.019,3.841a44.309,44.309,0,0,0,1.3,4.805,13.205,13.205,0,0,0,1.4,2.338,48.944,48.944,0,0,1,4.421,8.267c.721,1.741,1.289,3.456,2.175,5.13.691,1.3,1.257,2.717,2.065,3.951.44.673,1.011,1.272,1.512,1.9A30.831,30.831,0,0,0,95.7,68.573" fill="none" stroke="#241109" stroke-linecap="round" stroke-linejoin="round" stroke-width="0.5"/>
      <path id="Path_13157" data-name="Path 13157" d="M83.457,36.217c-.656,1.721.693,4.1,1.352,5.632a59.27,59.27,0,0,1,2.319,6.519c.665,2.219,2.116,4.155,2.984,6.3a18.626,18.626,0,0,0,3.336,5.86c1.95,2.082,3.991,4.081,5.9,6.2.445.493,1.021.832,1.469,1.316.289.312,1.164,1.075,1.25,1.451" fill="none" stroke="#241109" stroke-linecap="round" stroke-linejoin="round" stroke-width="0.5"/>
      <path id="Path_13158" data-name="Path 13158" d="M88.057,38.345c-.6.011-.4.27-.387.641A15.809,15.809,0,0,0,89,43.176a78.747,78.747,0,0,0,3.55,7.422A47.76,47.76,0,0,0,95.4,55.7c1.168,1.785,1.836,3.858,3,5.65.43.662.97,1.2,1.347,1.9.3.571.492,1.2.847,1.746.4.62.959,1.135,1.415,1.715.408.516.732,1.1,1.175,1.586a19.574,19.574,0,0,0,1.492,1.314c.339.3.723.469,1.058.757-.017.073-.035.144-.052.215" fill="none" stroke="#241109" stroke-linecap="round" stroke-linejoin="round" stroke-width="0.5"/>
      <path id="Path_13159" data-name="Path 13159" d="M91.676,39.438c1.145,2.489.851,5.5,2.466,7.8,1.447,2.06,2.918,4.075,4.306,6.177.81,1.225,1.615,2.489,2.533,3.637.579.728,1.309,1.3,1.928,2,.644.725,1.022,1.63,1.633,2.383.6.734,1.229,1.4,1.777,2.177.741,1.048,1.268,2.175,2.1,3.166.5.6,1.091.984,1.624,1.522.305.31.361.652.752.9a7.583,7.583,0,0,1,.965.487,5.64,5.64,0,0,1,.995.976" fill="none" stroke="#241109" stroke-linecap="round" stroke-linejoin="round" stroke-width="0.5"/>
      <path id="Path_13160" data-name="Path 13160" d="M95.052,40.42c-.428.522.223,1.717.406,2.256a18.728,18.728,0,0,0,1.671,3.882c.613,1,1.291,2.119,1.974,3.066.873,1.214,1.823,2.2,2.585,3.508A40.037,40.037,0,0,0,104.9,58.41c.438.537.926,1.146,1.395,1.657.607.659,1.294,1.051,1.862,1.759,1.574,1.956,3.406,3.661,5.069,5.537a23.679,23.679,0,0,0,1.857,1.548c.38.349.762.683,1.164,1.013a8,8,0,0,0,1.8,1.447" fill="none" stroke="#241109" stroke-linecap="round" stroke-linejoin="round" stroke-width="0.5"/>
      <path id="Path_13161" data-name="Path 13161" d="M98.315,41.639a20.8,20.8,0,0,0,1.274,2.969,20.375,20.375,0,0,0,2.011,3.743c1.216,1.558,2.667,3,3.978,4.482,1.488,1.688,3.073,3.393,4.384,5.221a24.128,24.128,0,0,0,3.3,3.984,29.178,29.178,0,0,0,5.414,4.4c1,.54,1.786,1.369,2.79,1.874a32.4,32.4,0,0,1,4.362,2.88" fill="none" stroke="#241109" stroke-linecap="round" stroke-linejoin="round" stroke-width="0.5"/>
      <path id="Path_13162" data-name="Path 13162" d="M103.285,44.23c.361.2.724.987.916,1.241.98,1.3,1.9,2.624,2.862,3.933,1.579,2.144,3.572,4.028,5.3,6.068a39.981,39.981,0,0,0,3.235,3.3c1.11,1.044,2.056,2.155,3.235,3.13.909.75,1.834,1.436,2.7,2.2,2.227,1.967,5.325,2.964,7.589,4.88a11.185,11.185,0,0,0,2.673,1.493" fill="none" stroke="#241109" stroke-linecap="round" stroke-linejoin="round" stroke-width="0.5"/>
      <path id="Path_13163" data-name="Path 13163" d="M109.1,46.918c1.373.369,2.388,1.933,3.261,2.918,1.941,2.192,3.689,4.515,5.831,6.53,1.468,1.38,2.961,2.757,4.513,4.044a26.212,26.212,0,0,0,2.687,1.763c.754.484,1.365,1.131,2.112,1.622,2.116,1.394,4.319,2.7,6.511,3.96.672.387,1.244.821,1.944,1.159.428.206.773.752,1.214.856" fill="none" stroke="#241109" stroke-linecap="round" stroke-linejoin="round" stroke-width="0.5"/>
      <path id="Path_13164" data-name="Path 13164" d="M115.976,49.232a2.79,2.79,0,0,1,.784.77c.564.639,1.17,1.246,1.767,1.854,1.551,1.58,3.216,3.075,4.892,4.528,2.6,2.248,5.44,4.077,8.241,6.057.708.5,1.33,1.1,2.03,1.6a22.054,22.054,0,0,0,3.589,1.717l3.669,1.7" fill="none" stroke="#241109" stroke-linecap="round" stroke-linejoin="round" stroke-width="0.5"/>
      <path id="Path_13165" data-name="Path 13165" d="M122.117,50.621c-.032.053-.063.108-.1.161a22.546,22.546,0,0,0,2.866,2.789,35.919,35.919,0,0,0,4.9,4.52c1.326.916,2.525,1.98,3.861,2.882,1,.679,2.026,1.321,3.045,1.976a29.845,29.845,0,0,0,2.9,1.871c.8.389,1.624.728,2.429,1.1q1.321.614,2.643,1.223" fill="none" stroke="#241109" stroke-linecap="round" stroke-linejoin="round" stroke-width="0.5"/>
      <path id="Path_13166" data-name="Path 13166" d="M128.385,52.362a1.985,1.985,0,0,1,.855,1.031q1.039,1.573,2.077,3.15a10.846,10.846,0,0,0,2.524,2.407c2.162,1.615,4.425,3.028,6.7,4.478.665.423,1.319.858,1.941,1.338.732.566,1.59.821,2.332,1.356a8.982,8.982,0,0,1,1.764,1.332" fill="none" stroke="#241109" stroke-linecap="round" stroke-linejoin="round" stroke-width="0.5"/>
      <path id="Path_13167" data-name="Path 13167" d="M134.8,55.038a7.063,7.063,0,0,1,2.242,1.619,20.226,20.226,0,0,0,2.419,1.779c1.056.666,2,1.454,3.032,2.142.868.58,1.864.852,2.71,1.473a10.858,10.858,0,0,0,2.136,1.405c.644.285,1.279.588,1.918.883l2.188,1.013" fill="none" stroke="#241109" stroke-linecap="round" stroke-linejoin="round" stroke-width="0.5"/>
      <path id="Path_13168" data-name="Path 13168" d="M143.841,57.771c2.352,1.051,4.231,3.039,6.552,4.2,1.747.876,3.563,1.639,5.339,2.46" fill="none" stroke="#241109" stroke-linecap="round" stroke-linejoin="round" stroke-width="0.5"/>
      <path id="Path_13169" data-name="Path 13169" d="M153.244,60.381c.643.3,1.278.639,1.933.9.674.274,1.369.363,2.05.655,1.026.44,2.112.412,3.138.865" fill="none" stroke="#241109" stroke-linecap="round" stroke-linejoin="round" stroke-width="0.5"/>
    </g>
  </g>
  <g id="Group_391" data-name="Group 391">
    <g id="Group_390" data-name="Group 390" clip-path="url(#clip-path-2)">
      <path id="Path_13171" data-name="Path 13171" d="M41.965,10.293A28.513,28.513,0,0,1,34.3,9.1C32.746,8.648,31.32,8,29.81,7.457c-2.23-.8-4.486-1.64-6.743-2.36-1.73-.553-3.563-.68-5.242-1.376A36.094,36.094,0,0,0,9.376,1.713c-1.6-.24-3.217-.405-4.828-.605C3.582.988,1.817.224.893.53.893,1.93.328,3.191.5,4.657c1.266.286,2.715.317,4.039.6,2.678.551,5.178,1.763,7.828,2.424,3.511.878,6.812,2.292,10.293,3.218a77.744,77.744,0,0,1,10.414,3.409c2.583,1.107,5.56,2.071,6.515,4.9a8.323,8.323,0,0,1,.274,3,31.915,31.915,0,0,0,.392,3.582,12.369,12.369,0,0,0,.906,3.967,20.866,20.866,0,0,0,2.6,3.3,49.846,49.846,0,0,0,3.211,3.881c2.877,3.086,5.708,6.17,8.714,9.131,1.592,1.57,3.049,3.223,4.753,4.684,1.6,1.372,3.319,2.589,5,3.868,1.486,1.136,3.149,2.06,4.7,3.126a65.3,65.3,0,0,0,17.8,8.55c1.952.608,3.929,1.279,5.907,1.8,1.732.456,3.528.57,5.29.87,2.639.451,5.346.764,7.972,1.263,2.217.42,4.36.26,6.6.533a55.48,55.48,0,0,0,14.994.086c2.281-.354,4.69-.286,6.89-1.013,1.3-.429,2.463-1.1,3.8-1.466,1.121-.3,2.271-.5,3.4-.771,5.877-1.407,11.514-3.56,17.474-4.652,3.108-.568,6.224-1.235,9.37-1.572a30.9,30.9,0,0,0,5.913-.735,21.41,21.41,0,0,0-3.015-.836,43.063,43.063,0,0,1-6.133-2.225,40.146,40.146,0,0,1-9.489-5.614c-3.034-2.532-5.911-5.1-9.172-7.363-3.534-2.443-6.983-5-10.56-7.383-5.035-3.348-10.256-6.514-15.389-9.712a172.1,172.1,0,0,0-17.741-9.8,57.037,57.037,0,0,0-8.4-3.657c-3.938-1.116-7.858-2.2-11.828-3.21-3.023-.766-6.03-1.349-9.088-1.966-3.245-.657-6.7-1.567-10.022-1.589-2.184-.018-4.373.544-6.577.6-2.308.057-4.511.674-6.791.957a35.565,35.565,0,0,0-3.884.315c-.716.172-1.307.4-2.029.506C44.117,9.858,42.795,10.184,41.965,10.293Z" fill="none" stroke="#241109" stroke-linecap="round" stroke-linejoin="round" stroke-width="0.5"/>
    </g>
  </g>
</svg>
