<svg xmlns="http://www.w3.org/2000/svg" width="120" height="120" viewBox="0 0 120 120">
  <g id="Group_29680" data-name="Group 29680" transform="translate(-492 -6265)">
    <path id="Path_22600" data-name="Path 22600" d="M60,0A60,60,0,1,1,0,60,60,60,0,0,1,60,0Z" transform="translate(492 6265)" fill="#fff"/>
    <path id="Path_22602" data-name="Path 22602" d="M10.386-5.076a5.268,5.268,0,0,1-.792,3.105A4.093,4.093,0,0,1,7.353-.432,11.925,11.925,0,0,1,3.96,0H1.116V-10.134H3.96a9.283,9.283,0,0,1,3.393.567A4.81,4.81,0,0,1,9.594-7.884,4.733,4.733,0,0,1,10.386-5.076ZM3.258-1.782h1.35a5.849,5.849,0,0,0,1.845-.261,2.154,2.154,0,0,0,1.206-.972,4.125,4.125,0,0,0,.423-2.079A2.938,2.938,0,0,0,7.146-7.47a3.8,3.8,0,0,0-2.538-.792H3.258ZM12.042,0V-10.134h3.924a6.038,6.038,0,0,1,3.105.675A2.513,2.513,0,0,1,20.2-7.11a3.2,3.2,0,0,1-.6,2.052,2.012,2.012,0,0,1-1.665.756,1.221,1.221,0,0,1,.846.261,1.408,1.408,0,0,1,.405.639,5.507,5.507,0,0,1,.18.783,4.237,4.237,0,0,0,.171.72.688.688,0,0,0,.369.432,1.048,1.048,0,0,0,.783-.1V-.36a2.113,2.113,0,0,1-.954.477A1.869,1.869,0,0,1,18.684.054a1.639,1.639,0,0,1-.837-.711,2.752,2.752,0,0,1-.333-1.467,5.463,5.463,0,0,0-.081-1.026,1.033,1.033,0,0,0-.387-.648,1.97,1.97,0,0,0-.972-.306,11.717,11.717,0,0,0-1.854,0V0ZM14.22-5.652h1.548q.846,0,1.4-.054a1.335,1.335,0,0,0,.819-.315,1.237,1.237,0,0,0,.27-.909,1.361,1.361,0,0,0-.324-1.035,1.589,1.589,0,0,0-.963-.351q-.639-.054-1.557-.054H14.22ZM21.78,0l3.078-10.134H28.44L31.608,0H29.286L28.53-2.7H24.858L24.12,0Zm4.914-9.234-1.368,4.86h2.736ZM37.1.2A5.475,5.475,0,0,1,34.488-.4a4.049,4.049,0,0,1-1.719-1.755A5.859,5.859,0,0,1,32.2-5a5.966,5.966,0,0,1,.72-2.907A4.565,4.565,0,0,1,34.767-9.7a5.648,5.648,0,0,1,2.673-.612,5.171,5.171,0,0,1,3.276.9,4.493,4.493,0,0,1,1.53,2.61L40.14-6.48a2.1,2.1,0,0,0-.585-1.08,2.391,2.391,0,0,0-.981-.558A4.048,4.048,0,0,0,37.44-8.28a2.911,2.911,0,0,0-2.349.864,3.443,3.443,0,0,0-.747,2.25,3.168,3.168,0,0,0,.873,2.412,3.483,3.483,0,0,0,2.493.828,3.9,3.9,0,0,0,1.647-.36,1.975,1.975,0,0,0,1.071-1.278H38.5V-5.13h3.942V0H40.986L40.5-1.53h-.036A2.993,2.993,0,0,1,39.312-.342,4.06,4.06,0,0,1,37.1.2Z" transform="translate(531 6332)" fill="#311300"/>
  </g>
</svg>
