<svg xmlns="http://www.w3.org/2000/svg" xmlns:xlink="http://www.w3.org/1999/xlink" width="742" height="128" viewBox="0 0 742 128">
  <defs>
    <clipPath id="clip-path">
      <rect id="Rectangle_374" data-name="Rectangle 374" width="742" height="128" transform="translate(-10471 8239)" fill="#fff" stroke="#707070" stroke-width="1"/>
    </clipPath>
  </defs>
  <g id="Mask_Group_149" data-name="Mask Group 149" transform="translate(10471 -8239)" clip-path="url(#clip-path)">
    <path id="Path_13845" data-name="Path 13845" d="M57.128,18.944a33.693,33.693,0,0,1-7.252-.814,10.725,10.725,0,0,1-6.364-4.44Q40.848,10.064,40.4,1.776,22.94,0,13.912-11.544T4.884-41.44q0-13.024,4.588-22.792A33.806,33.806,0,0,1,23.31-79.4q9.25-5.4,23.162-5.4,13.616,0,22.866,5.4a34.326,34.326,0,0,1,13.912,15.1q4.662,9.694,4.662,22.718,0,17.464-8.436,29.082T54.612,1.48q.148,3.256,1.258,4.588T61.42,7.4a14.163,14.163,0,0,0,3.034-.666,15.222,15.222,0,0,1,4.218-.666l.148,11.4q-.3,0-3.034.37t-5.4.74Q57.72,18.944,57.128,18.944Zm-10.8-31.672q13.024,0,19.61-7.918T72.52-41.884q0-13.32-6.512-21.312T46.324-71.188q-12.876,0-19.536,7.7t-6.66,21.46q0,13.32,6.438,21.312T46.324-12.728Zm89.244,14.8q-17.76,0-27.01-9.842t-9.25-27.75v-47.8H115.44v47.656q0,9.176,2.96,14.208a16.8,16.8,0,0,0,7.548,7.1,23.114,23.114,0,0,0,9.62,2.072,25.314,25.314,0,0,0,10.212-2,15.268,15.268,0,0,0,7.326-7.03q2.738-5.032,2.738-14.356V-83.324h15.984v47.8q0,18.2-9.1,27.9T135.568,2.072ZM211.048,0V-29.452L182.632-83.324H199.5l19.388,40.7,19.092-40.7h16.872L226-29.6V0Zm72.816-70.3V-83.324h64.38V-70.3H323.528V0h-15.1V-70.3ZM361.12,0V-83.324h30.636q16.132,0,25.16,5.4T425.944-58.9q0,10.212-4.884,16.5T407-36.112q5.18,0,7.77,2.294a12.2,12.2,0,0,1,3.626,5.7,41.216,41.216,0,0,1,1.48,7.1,62.805,62.805,0,0,0,1.11,6.586,6.01,6.01,0,0,0,2.664,4.07q2,1.184,6.29-.444v8.732a14.961,14.961,0,0,1-6.66,3.182,13.574,13.574,0,0,1-7.548-.518,12.4,12.4,0,0,1-6.216-5.254Q407-8.584,407-15.688a58.628,58.628,0,0,0-.74-10.434,8.751,8.751,0,0,0-3.7-5.92q-2.96-2-9.176-2.516a132.82,132.82,0,0,0-17.168.074V0Zm15.1-45.436h14.948a88.74,88.74,0,0,0,11.988-.666q4.736-.666,7.03-3.256t2.294-8.362q0-6.364-2.812-9.176t-8.214-3.478A110.824,110.824,0,0,0,388.2-71.04H376.216Zm103.9,32.56V0H442.964V-12.876h11.248V-70.3H442.964V-83.324h37.148V-70.3H469.16v57.424Zm-23.976-77.4-12.58-14.06V-107h12.728l6.66,14.8v1.924ZM554.7-83.324h15.688V0H541.68L513.116-76.664h-.3V0H497.28V-83.324h26.64L554.408-6.66h.3ZM601.768,0H586.524V-83.324h15.244v35.076h39.516V-83.324h15.1V0h-15.1V-36.556H601.768Z" transform="translate(-10474.384 8347.504)" fill="none" stroke="#fff" stroke-width="1.5"/>
  </g>
</svg>
