<svg xmlns="http://www.w3.org/2000/svg" xmlns:xlink="http://www.w3.org/1999/xlink" width="622" height="90" viewBox="0 0 622 90">
  <defs>
    <clipPath id="clip-path">
      <rect id="Rectangle_373" data-name="Rectangle 373" width="622" height="90" transform="translate(-10405 12382)" fill="#fff" stroke="#707070" stroke-width="1"/>
    </clipPath>
  </defs>
  <g id="Mask_Group_148" data-name="Mask Group 148" transform="translate(10405 -12382)" clip-path="url(#clip-path)">
    <path id="Path_13843" data-name="Path 13843" d="M-514.744,0h-14.8V-83.324H-470.2V-70.3h-44.548v20.424h34.04v12.284h-34.04Zm41.44,0,26.64-83.324h24.716L-394.568,0H-410.7l-7.1-23.532h-32.412L-457.32,0Zm39.22-76.96-12.58,41.736h25.308Zm85.4,78.44a46.067,46.067,0,0,1-21.164-4.81,36.083,36.083,0,0,1-15.022-14.282q-5.55-9.472-5.55-23.68.148-13.912,5.624-23.68a36.584,36.584,0,0,1,14.948-14.8A45.348,45.348,0,0,1-348.244-84.8q11.544,0,19.684,4.144a35.043,35.043,0,0,1,13.1,11.248,38.652,38.652,0,0,1,6.438,15.984h-15.54a18.109,18.109,0,0,0-4.81-10.286,21.085,21.085,0,0,0-8.806-5.328A33.948,33.948,0,0,0-348.244-70.6q-13.172,0-20.2,7.4t-7.03,20.868q0,14.356,6.882,22.052t20.054,7.7a33.922,33.922,0,0,0,10.656-1.7A21.043,21.043,0,0,0-329-19.906a19.307,19.307,0,0,0,4.736-10.582h15.688a40.99,40.99,0,0,1-6.586,16.354,34.979,34.979,0,0,1-13.32,11.4Q-336.848,1.48-348.688,1.48Zm45.14-71.78V-83.324h64.38V-70.3h-24.716V0h-15.1V-70.3ZM-192.992,2.072q-20.128,0-30.784-11.766T-234.432-41.44q0-13.172,4.588-22.866a33.883,33.883,0,0,1,13.838-15.1q9.25-5.4,23.014-5.4,20.424,0,30.932,11.766t10.508,31.6a51.8,51.8,0,0,1-4.736,22.718A35.185,35.185,0,0,1-170.2-3.4Q-179.376,2.072-192.992,2.072Zm-.148-14.5q13.32,0,20.054-8.288t6.734-20.72a36.284,36.284,0,0,0-2.96-15.022,23.339,23.339,0,0,0-8.88-10.36q-5.92-3.774-14.948-3.774-13.024,0-19.832,7.992T-219.78-41.44a36.315,36.315,0,0,0,2.886,14.726,23.329,23.329,0,0,0,8.806,10.434Q-202.168-12.432-193.14-12.432ZM-139.12,0V-83.324h30.636q16.132,0,25.16,5.4T-74.3-58.9q0,10.212-4.884,16.5t-14.06,6.29q5.18,0,7.77,2.294a12.2,12.2,0,0,1,3.626,5.7,41.217,41.217,0,0,1,1.48,7.1,62.807,62.807,0,0,0,1.11,6.586,6.01,6.01,0,0,0,2.664,4.07q2,1.184,6.29-.444v8.732A14.961,14.961,0,0,1-76.96,1.11,13.574,13.574,0,0,1-84.508.592a12.4,12.4,0,0,1-6.216-5.254Q-93.24-8.584-93.24-15.688a58.626,58.626,0,0,0-.74-10.434,8.751,8.751,0,0,0-3.7-5.92q-2.96-2-9.176-2.516a132.82,132.82,0,0,0-17.168.074V0Zm15.1-45.436h14.948A88.74,88.74,0,0,0-97.088-46.1q4.736-.666,7.03-3.256t2.294-8.362q0-6.364-2.812-9.176t-8.214-3.478a110.824,110.824,0,0,0-13.246-.666h-11.988ZM-40.848,0V-29.452L-69.264-83.324h16.872L-33-42.624l19.092-40.7H2.96L-25.9-29.6V0Z" transform="translate(-9873.956 12468.304)" fill="none" stroke="#fff" stroke-width="1.5"/>
  </g>
</svg>
