<svg xmlns="http://www.w3.org/2000/svg" xmlns:xlink="http://www.w3.org/1999/xlink" width="840" height="144" viewBox="0 0 840 144">
  <defs>
    <clipPath id="clip-path">
      <rect id="Rectangle_376" data-name="Rectangle 376" width="840" height="144" transform="translate(-10302 12251)" fill="#fff" stroke="#707070" stroke-width="1"/>
    </clipPath>
  </defs>
  <g id="Mask_Group_151" data-name="Mask Group 151" transform="translate(10302 -12251)" clip-path="url(#clip-path)">
    <path id="Path_13847" data-name="Path 13847" d="M52.976,1.76A54.782,54.782,0,0,1,27.808-3.96,42.91,42.91,0,0,1,9.944-20.944q-6.6-11.264-6.6-28.16.176-16.544,6.688-28.16a43.506,43.506,0,0,1,17.776-17.6,53.928,53.928,0,0,1,25.7-5.984q13.728,0,23.408,4.928A41.673,41.673,0,0,1,92.488-82.544a45.965,45.965,0,0,1,7.656,19.008H81.664q-1.232-7.744-5.72-12.232A25.074,25.074,0,0,0,65.472-82.1,40.371,40.371,0,0,0,53.5-83.952q-15.664,0-24.024,8.8T21.12-50.336q0,17.072,8.184,26.224T53.152-14.96a40.34,40.34,0,0,0,12.672-2.024,25.025,25.025,0,0,0,10.56-6.688q4.4-4.664,5.632-12.584h18.656A48.744,48.744,0,0,1,92.84-16.808,41.6,41.6,0,0,1,77-3.256Q67.056,1.76,52.976,1.76ZM192.9-88.528l.176-10.56h7.216q3.872,0,4.488-1.5t.792-7.3h12.5q0,10.912-4.136,15.136T198.7-88.528ZM157.344,2.464q-21.12,0-32.12-11.7t-11-33V-99.088h19.184v56.672q0,10.912,3.52,16.9a19.984,19.984,0,0,0,8.976,8.448,27.487,27.487,0,0,0,11.44,2.464,30.1,30.1,0,0,0,12.144-2.376,18.157,18.157,0,0,0,8.712-8.36q3.256-5.984,3.256-17.072V-99.088h19.008V-42.24q0,21.648-10.824,33.176T157.344,2.464Zm-6.336-111.408v-2.64a9.345,9.345,0,0,1,3.784-3.96,55.784,55.784,0,0,0,5.1-3.52,6.017,6.017,0,0,0,2.376-5.016,3.706,3.706,0,0,0-2.64-3.784,8.937,8.937,0,0,0-5.808,0,6.6,6.6,0,0,0-4.4,4.312l-7.392-4.752a13.385,13.385,0,0,1,4.752-7.48,17.967,17.967,0,0,1,8.008-3.52,18.951,18.951,0,0,1,8.712.44,13.943,13.943,0,0,1,6.952,4.488,12.575,12.575,0,0,1,2.728,8.36q0,5.28-2.288,8.008a30.052,30.052,0,0,1-4.84,4.664,9.653,9.653,0,0,0-3.432,4.4ZM211.9,0l31.68-99.088h29.392L305.536,0H286.352L277.9-27.984H239.36L230.912,0Zm46.64-91.52-14.96,49.632h30.1ZM372.768,0H354.64V-99.088h18.128v41.712H419.76V-99.088h17.952V0H419.76V-43.472H372.768Zm77.44,0,31.68-99.088H511.28L543.84,0H524.656l-8.448-27.984H477.664L469.216,0Zm46.64-91.52-14.96,49.632h30.1Zm-4.4-15.84-14.96-16.72v-3.168h15.136l7.92,17.6v2.288Zm130.944,8.272h18.656V0H607.9L573.936-91.168h-.352V0H555.1V-99.088h31.68L623.04-7.92h.352ZM702.064,1.936q-14.432,0-25.256-5.808a39.2,39.2,0,0,1-16.632-17.16q-5.808-11.352-5.456-27.9.176-16.72,6.6-28.336a42.955,42.955,0,0,1,17.688-17.6q11.264-5.984,26.048-5.984,20.24,0,31.328,8.8t14.784,25.52L733.92-64.064Q731.28-75.152,723.1-79.552a37.485,37.485,0,0,0-18.04-4.4q-16.9,0-24.728,9.152T672.32-50.336q0,16.9,8.976,25.96t25.7,9.064a35.913,35.913,0,0,0,18.48-4.84q8.272-4.84,10.736-15.576H714.384v-13.2H753.1V0H740.96l-4.048-17.248h-.352a27.35,27.35,0,0,1-6.072,8.8,34.613,34.613,0,0,1-11.352,7.392A43.59,43.59,0,0,1,702.064,1.936Z" transform="translate(-10303.844 12391.114)" fill="none" stroke="#fff" stroke-width="1.5"/>
  </g>
</svg>
