<svg xmlns="http://www.w3.org/2000/svg" xmlns:xlink="http://www.w3.org/1999/xlink" width="634" height="137" viewBox="0 0 634 137">
  <defs>
    <clipPath id="clip-path">
      <rect id="Rectangle_378" data-name="Rectangle 378" width="634" height="137" transform="translate(-9933 14535)" fill="#fff" stroke="#707070" stroke-width="1"/>
    </clipPath>
  </defs>
  <g id="Mask_Group_153" data-name="Mask Group 153" transform="translate(9933 -14535)" clip-path="url(#clip-path)">
    <path id="Path_13849" data-name="Path 13849" d="M40.848,1.628A55.611,55.611,0,0,1,27.454,0,39.6,39.6,0,0,1,15.54-5.032,24.9,24.9,0,0,1,7.1-13.986,28.138,28.138,0,0,1,3.848-27.38H19.092a17.923,17.923,0,0,0,.592,3.182,14.579,14.579,0,0,0,2.738,5.254A17.08,17.08,0,0,0,29.23-14.06q4.662,2.072,12.654,2.072,8.732,0,12.95-3.256T59.052-22.2a8.182,8.182,0,0,0-2.886-6.586,22.536,22.536,0,0,0-7.7-4q-4.81-1.554-10.508-2.886T26.566-38.7a42.9,42.9,0,0,1-10.36-4.588A21.243,21.243,0,0,1,8.88-50.764Q6.216-55.352,6.512-62.456q.74-10.508,10.064-16.428T41.292-84.8a42.4,42.4,0,0,1,16.5,3.182A28.711,28.711,0,0,1,70.078-72.15q4.662,6.29,4.662,16.058H60.088a12.519,12.519,0,0,0-2.072-7.474,13.862,13.862,0,0,0-5.254-4.44,22.722,22.722,0,0,0-6.734-2.072,44.569,44.569,0,0,0-6.364-.518,26.222,26.222,0,0,0-12.21,2.516q-4.81,2.516-4.81,7.4a7.908,7.908,0,0,0,2.812,6.66,21.688,21.688,0,0,0,7.844,4q4.884,1.48,10.656,2.664T55.5-44.474a48.071,48.071,0,0,1,10.508,4.44,19.733,19.733,0,0,1,7.4,7.4q2.664,4.662,2.22,12.062Q75.036-10.064,65.416-4.218T40.848,1.628Zm114.4-76.072.148-8.88h6.068q3.256,0,3.774-1.258a23.171,23.171,0,0,0,.666-6.142h10.508q0,9.176-3.478,12.728t-12.8,3.552Zm-29.9,76.516q-17.76,0-27.01-9.842T89.1-35.52v-47.8h16.132v47.656q0,9.176,2.96,14.208a16.8,16.8,0,0,0,7.548,7.1,23.114,23.114,0,0,0,9.62,2.072,25.314,25.314,0,0,0,10.212-2,15.268,15.268,0,0,0,7.326-7.03q2.738-5.032,2.738-14.356V-83.324h15.984v47.8q0,18.2-9.1,27.9T125.356,2.072Zm2.22-92.352h-6.808V-92.2l6.66-14.8h12.728v2.664ZM208.384,0V-83.324h26.344L254.264-6.512h.3l19.388-76.812h26.2V0H284.456l1.036-76.516h-.148L265.364,0h-22.2L223.48-76.516h-.3L224.072,0ZM330.336-12.136h46.028V0H315.388V-83.324h59.5V-70.3H330.336v21.9h34.188v12.432H330.336ZM344.4,25.9q-4.588,0-6.216-2.368a9.682,9.682,0,0,1-1.628-5.624,8.851,8.851,0,0,1,1.628-5.254q1.628-2.294,6.216-2.294,4.736,0,6.216,2.294a9.477,9.477,0,0,1,1.48,5.254,10.394,10.394,0,0,1-1.48,5.624Q349.132,25.9,344.4,25.9ZM323.972-92.5v-1.184l17.464-16.132H347.8l17.464,16.132V-92.5H351.8l-6.808-7.548h-.74L337.736-92.5Zm122.4,9.176h15.688V0H433.344L404.78-76.664h-.3V0h-15.54V-83.324h26.64L446.072-6.66h.3ZM493.432,0H478.188V-83.324h15.244v35.076h39.516V-83.324h15.1V0h-15.1V-36.556H493.432Z" transform="translate(-9934.348 14645.316)" fill="none" stroke="#fff" stroke-width="1.5"/>
  </g>
</svg>
