<svg xmlns="http://www.w3.org/2000/svg" xmlns:xlink="http://www.w3.org/1999/xlink" width="633" height="90" viewBox="0 0 633 90">
  <defs>
    <clipPath id="clip-path">
      <rect id="Rectangle_374" data-name="Rectangle 374" width="633" height="90" transform="translate(-10315 13908)" fill="#fff" stroke="#707070" stroke-width="1"/>
    </clipPath>
  </defs>
  <g id="Mask_Group_149" data-name="Mask Group 149" transform="translate(10315 -13908)" clip-path="url(#clip-path)">
    <path id="Path_13844" data-name="Path 13844" d="M-551.152,0V-83.324h26.344l19.536,76.812h.3l19.388-76.812h26.2V0H-475.08l1.036-76.516h-.148L-494.172,0h-22.2l-19.684-76.516h-.3L-535.464,0Zm145.188-12.876V0h-37.148V-12.876h11.248V-70.3h-11.248V-83.324h37.148V-70.3h-10.952v57.424Zm49.876,14.5A55.61,55.61,0,0,1-369.482,0,39.6,39.6,0,0,1-381.4-5.032a24.9,24.9,0,0,1-8.436-8.954,28.138,28.138,0,0,1-3.256-13.394h15.244a17.923,17.923,0,0,0,.592,3.182,14.58,14.58,0,0,0,2.738,5.254,17.081,17.081,0,0,0,6.808,4.884q4.662,2.072,12.654,2.072,8.732,0,12.95-3.256t4.218-6.956a8.182,8.182,0,0,0-2.886-6.586,22.537,22.537,0,0,0-7.7-4q-4.81-1.554-10.508-2.886t-11.4-3.034a42.9,42.9,0,0,1-10.36-4.588,21.242,21.242,0,0,1-7.326-7.474q-2.664-4.588-2.368-11.692.74-10.508,10.064-16.428t24.716-5.92a42.4,42.4,0,0,1,16.5,3.182,28.711,28.711,0,0,1,12.284,9.472q4.662,6.29,4.662,16.058h-14.652a12.518,12.518,0,0,0-2.072-7.474,13.862,13.862,0,0,0-5.254-4.44,22.721,22.721,0,0,0-6.734-2.072,44.569,44.569,0,0,0-6.364-.518,26.222,26.222,0,0,0-12.21,2.516q-4.81,2.516-4.81,7.4a7.908,7.908,0,0,0,2.812,6.66,21.688,21.688,0,0,0,7.844,4q4.884,1.48,10.656,2.664t11.544,2.886a48.071,48.071,0,0,1,10.508,4.44,19.733,19.733,0,0,1,7.4,7.4q2.664,4.662,2.22,12.062Q-321.9-10.064-331.52-4.218T-356.088,1.628Zm81.252,0A55.61,55.61,0,0,1-288.23,0a39.6,39.6,0,0,1-11.914-5.032,24.9,24.9,0,0,1-8.436-8.954,28.138,28.138,0,0,1-3.256-13.394h15.244A17.923,17.923,0,0,0-296-24.2a14.58,14.58,0,0,0,2.738,5.254,17.081,17.081,0,0,0,6.808,4.884q4.662,2.072,12.654,2.072,8.732,0,12.95-3.256t4.218-6.956a8.182,8.182,0,0,0-2.886-6.586,22.537,22.537,0,0,0-7.7-4q-4.81-1.554-10.508-2.886t-11.4-3.034a42.9,42.9,0,0,1-10.36-4.588,21.242,21.242,0,0,1-7.326-7.474q-2.664-4.588-2.368-11.692.74-10.508,10.064-16.428t24.716-5.92a42.4,42.4,0,0,1,16.5,3.182,28.711,28.711,0,0,1,12.284,9.472q4.662,6.29,4.662,16.058H-255.6a12.518,12.518,0,0,0-2.072-7.474,13.862,13.862,0,0,0-5.254-4.44,22.721,22.721,0,0,0-6.734-2.072,44.569,44.569,0,0,0-6.364-.518,26.222,26.222,0,0,0-12.21,2.516q-4.81,2.516-4.81,7.4a7.908,7.908,0,0,0,2.812,6.66,21.688,21.688,0,0,0,7.844,4q4.884,1.48,10.656,2.664t11.544,2.886a48.071,48.071,0,0,1,10.508,4.44,19.733,19.733,0,0,1,7.4,7.4q2.664,4.662,2.22,12.062-.592,10.508-10.212,16.354T-274.836,1.628Zm86.432-14.5V0h-37.148V-12.876H-214.3V-70.3h-11.248V-83.324H-188.4V-70.3h-10.952v57.424Zm53.132,14.948q-20.128,0-30.784-11.766T-176.712-41.44q0-13.172,4.588-22.866a33.883,33.883,0,0,1,13.838-15.1q9.25-5.4,23.014-5.4,20.424,0,30.932,11.766t10.508,31.6a51.8,51.8,0,0,1-4.736,22.718A35.185,35.185,0,0,1-112.48-3.4Q-121.656,2.072-135.272,2.072Zm-.148-14.5q13.32,0,20.054-8.288t6.734-20.72a36.284,36.284,0,0,0-2.96-15.022,23.34,23.34,0,0,0-8.88-10.36q-5.92-3.774-14.948-3.774-13.024,0-19.832,7.992T-162.06-41.44a36.315,36.315,0,0,0,2.886,14.726,23.329,23.329,0,0,0,8.806,10.434Q-144.448-12.432-135.42-12.432Zm111.3-70.892H-8.436V0H-37.148L-65.712-76.664h-.3V0h-15.54V-83.324h26.64L-24.42-6.66h.3Z" transform="translate(-9762.348 13994.304)" fill="none" stroke="#fff" stroke-width="1.5"/>
  </g>
</svg>
