<svg xmlns="http://www.w3.org/2000/svg" xmlns:xlink="http://www.w3.org/1999/xlink" width="735" height="88" viewBox="0 0 735 88">
  <defs>
    <clipPath id="clip-path">
      <rect id="Rectangle_410" data-name="Rectangle 410" width="735" height="88" transform="translate(-12271 9009)" fill="#fff" stroke="#707070" stroke-width="1"/>
    </clipPath>
  </defs>
  <g id="Mask_Group_185" data-name="Mask Group 185" transform="translate(12271 -9009)" clip-path="url(#clip-path)">
    <path id="Path_13843" data-name="Path 13843" d="M-636.4,0h-15.1V-83.324h33.448q13.912,0,21.608,6.956t7.7,21.016q0,12.284-7.918,19.24t-21.386,6.956H-636.4Zm16.28-71.04H-636.4v30.784h16.28q7.992,0,12.876-3.848t4.884-11.544q0-7.844-4.81-11.618T-620.12-71.04ZM-576.9,0V-83.324h30.636q16.132,0,25.16,5.4T-512.08-58.9q0,10.212-4.884,16.5t-14.06,6.29q5.18,0,7.77,2.294a12.2,12.2,0,0,1,3.626,5.7,41.219,41.219,0,0,1,1.48,7.1,62.789,62.789,0,0,0,1.11,6.586,6.01,6.01,0,0,0,2.664,4.07q2,1.184,6.29-.444v8.732a14.961,14.961,0,0,1-6.66,3.182,13.574,13.574,0,0,1-7.548-.518,12.4,12.4,0,0,1-6.216-5.254q-2.516-3.922-2.516-11.026a58.625,58.625,0,0,0-.74-10.434,8.751,8.751,0,0,0-3.7-5.92q-2.96-2-9.176-2.516a132.821,132.821,0,0,0-17.168.074V0Zm15.1-45.436h14.948a88.74,88.74,0,0,0,11.988-.666q4.736-.666,7.03-3.256t2.294-8.362q0-6.364-2.812-9.176t-8.214-3.478a110.823,110.823,0,0,0-13.246-.666h-11.988ZM-459.836,2.072q-20.128,0-30.784-11.766T-501.276-41.44q0-13.172,4.588-22.866A33.883,33.883,0,0,1-482.85-79.4q9.25-5.4,23.014-5.4,20.424,0,30.932,11.766t10.508,31.6a51.8,51.8,0,0,1-4.736,22.718A35.185,35.185,0,0,1-437.044-3.4Q-446.22,2.072-459.836,2.072Zm-.148-14.5q13.32,0,20.054-8.288t6.734-20.72a36.284,36.284,0,0,0-2.96-15.022,23.339,23.339,0,0,0-8.88-10.36q-5.92-3.774-14.948-3.774-13.024,0-19.832,7.992t-6.808,21.164a36.315,36.315,0,0,0,2.886,14.726,23.33,23.33,0,0,0,8.806,10.434Q-469.012-12.432-459.984-12.432Zm130.092-29.3q0,16.428-6.438,25.53A33.262,33.262,0,0,1-354.46-3.552Q-366.152,0-381.988,0h-22.94V-83.324h22.94q15.836,0,27.528,4.662a39.2,39.2,0,0,1,18.13,13.838Q-329.892-55.648-329.892-41.736Zm-60.088,29.3H-377.7a55.152,55.152,0,0,0,16.872-2.294,19.349,19.349,0,0,0,10.952-8.658q3.848-6.364,3.848-18.5,0-14.356-8.51-21.386T-377.7-70.3H-389.98Zm108.632,14.5q-17.76,0-27.01-9.842t-9.25-27.75v-47.8h16.132v47.656q0,9.176,2.96,14.208a16.8,16.8,0,0,0,7.548,7.1,23.114,23.114,0,0,0,9.62,2.072,25.314,25.314,0,0,0,10.212-2,15.268,15.268,0,0,0,7.326-7.03q2.738-5.032,2.738-14.356V-83.324h15.984v47.8q0,18.2-9.1,27.9T-281.348,2.072Zm87.616-.592A46.067,46.067,0,0,1-214.9-3.33a36.083,36.083,0,0,1-15.022-14.282q-5.55-9.472-5.55-23.68.148-13.912,5.624-23.68a36.584,36.584,0,0,1,14.948-14.8A45.348,45.348,0,0,1-193.288-84.8q11.544,0,19.684,4.144a35.043,35.043,0,0,1,13.1,11.248,38.652,38.652,0,0,1,6.438,15.984h-15.54a18.109,18.109,0,0,0-4.81-10.286,21.085,21.085,0,0,0-8.806-5.328A33.948,33.948,0,0,0-193.288-70.6q-13.172,0-20.2,7.4t-7.03,20.868q0,14.356,6.882,22.052t20.054,7.7a33.922,33.922,0,0,0,10.656-1.7,21.043,21.043,0,0,0,8.88-5.624,19.307,19.307,0,0,0,4.736-10.582h15.688a40.99,40.99,0,0,1-6.586,16.354,34.98,34.98,0,0,1-13.32,11.4Q-181.892,1.48-193.732,1.48Zm45.14-71.78V-83.324h64.38V-70.3h-24.716V0h-15.1V-70.3Zm107.3,71.928A55.611,55.611,0,0,1-54.686,0,39.6,39.6,0,0,1-66.6-5.032a24.9,24.9,0,0,1-8.436-8.954A28.138,28.138,0,0,1-78.292-27.38h15.244a17.923,17.923,0,0,0,.592,3.182,14.579,14.579,0,0,0,2.738,5.254A17.08,17.08,0,0,0-52.91-14.06q4.662,2.072,12.654,2.072,8.732,0,12.95-3.256t4.218-6.956a8.182,8.182,0,0,0-2.886-6.586,22.536,22.536,0,0,0-7.7-4q-4.81-1.554-10.508-2.886t-11.4-3.034a42.9,42.9,0,0,1-10.36-4.588,21.243,21.243,0,0,1-7.326-7.474q-2.664-4.588-2.368-11.692.74-10.508,10.064-16.428t24.716-5.92a42.4,42.4,0,0,1,16.5,3.182A28.711,28.711,0,0,1-12.062-72.15Q-7.4-65.86-7.4-56.092H-22.052a12.519,12.519,0,0,0-2.072-7.474,13.862,13.862,0,0,0-5.254-4.44,22.722,22.722,0,0,0-6.734-2.072,44.569,44.569,0,0,0-6.364-.518,26.222,26.222,0,0,0-12.21,2.516q-4.81,2.516-4.81,7.4a7.908,7.908,0,0,0,2.812,6.66,21.688,21.688,0,0,0,7.844,4q4.884,1.48,10.656,2.664t11.544,2.886a48.071,48.071,0,0,1,10.508,4.44,19.733,19.733,0,0,1,7.4,7.4q2.664,4.662,2.22,12.062Q-7.1-10.064-16.724-4.218T-41.292,1.628Z" transform="translate(-11619.004 9094.304)" fill="none" stroke="#fff" stroke-width="1.5"/>
  </g>
</svg>
