<svg xmlns="http://www.w3.org/2000/svg" xmlns:xlink="http://www.w3.org/1999/xlink" width="567" height="105" viewBox="0 0 567 105">
  <defs>
    <clipPath id="clip-path">
      <rect id="Rectangle_364" data-name="Rectangle 364" width="567" height="105" transform="translate(-10251 11677)" fill="#fff" stroke="#707070" stroke-width="1"/>
    </clipPath>
  </defs>
  <g id="Mask_Group_151" data-name="Mask Group 151" transform="translate(10251 -11677)" clip-path="url(#clip-path)">
    <path id="Path_10875" data-name="Path 10875" d="M-441.408,1.936A66.131,66.131,0,0,1-457.336,0,47.091,47.091,0,0,1-471.5-5.984a29.605,29.605,0,0,1-10.032-10.648,33.461,33.461,0,0,1-3.872-15.928h18.128a21.313,21.313,0,0,0,.7,3.784,17.338,17.338,0,0,0,3.256,6.248,20.312,20.312,0,0,0,8.1,5.808q5.544,2.464,15.048,2.464,10.384,0,15.4-3.872t5.016-8.272a9.73,9.73,0,0,0-3.432-7.832,26.8,26.8,0,0,0-9.152-4.752q-5.72-1.848-12.5-3.432t-13.552-3.608a51.02,51.02,0,0,1-12.32-5.456,25.261,25.261,0,0,1-8.712-8.888q-3.168-5.456-2.816-13.9.88-12.5,11.968-19.536t29.392-7.04a50.425,50.425,0,0,1,19.624,3.784A34.143,34.143,0,0,1-406.648-85.8q5.544,7.48,5.544,19.1h-17.424a14.887,14.887,0,0,0-2.464-8.888,16.485,16.485,0,0,0-6.248-5.28,27.02,27.02,0,0,0-8.008-2.464,53,53,0,0,0-7.568-.616q-8.8,0-14.52,2.992t-5.72,8.8a9.4,9.4,0,0,0,3.344,7.92,25.791,25.791,0,0,0,9.328,4.752q5.808,1.76,12.672,3.168t13.728,3.432a57.166,57.166,0,0,1,12.5,5.28,23.466,23.466,0,0,1,8.8,8.8q3.168,5.544,2.64,14.344-.7,12.5-12.144,19.448T-441.408,1.936ZM-365.024,0h-18.128V-99.088h18.128v41.712h46.992V-99.088h17.952V0h-17.952V-43.472h-46.992ZM-238.48,2.464q-23.936,0-36.608-13.992T-287.76-49.28q0-15.664,5.456-27.192a40.293,40.293,0,0,1,16.456-17.952q11-6.424,27.368-6.424,24.288,0,36.784,13.992t12.5,37.576q0,15.312-5.632,27.016A41.842,41.842,0,0,1-211.376-4.048Q-222.288,2.464-238.48,2.464Zm-.176-17.248q15.84,0,23.848-9.856t8.008-24.64a43.149,43.149,0,0,0-3.52-17.864,27.755,27.755,0,0,0-10.56-12.32q-7.04-4.488-17.776-4.488-15.488,0-23.584,9.5t-8.1,25.168A43.186,43.186,0,0,0-266.9-31.768,27.743,27.743,0,0,0-256.432-19.36Q-249.392-14.784-238.656-14.784ZM-156.288,0H-174.24V-99.088h39.776q16.544,0,25.7,8.272t9.152,24.992q0,14.608-9.416,22.88t-25.432,8.272h-21.824Zm19.36-84.48h-19.36v36.608h19.36q9.5,0,15.312-4.576t5.808-13.728q0-9.328-5.72-13.816T-136.928-84.48ZM-49.1,1.936A66.132,66.132,0,0,1-65.032,0,47.092,47.092,0,0,1-79.2-5.984,29.6,29.6,0,0,1-89.232-16.632,33.461,33.461,0,0,1-93.1-32.56h18.128a21.313,21.313,0,0,0,.7,3.784,17.337,17.337,0,0,0,3.256,6.248,20.312,20.312,0,0,0,8.1,5.808q5.544,2.464,15.048,2.464,10.384,0,15.4-3.872t5.016-8.272a9.73,9.73,0,0,0-3.432-7.832,26.8,26.8,0,0,0-9.152-4.752q-5.72-1.848-12.5-3.432t-13.552-3.608a51.02,51.02,0,0,1-12.32-5.456,25.261,25.261,0,0,1-8.712-8.888q-3.168-5.456-2.816-13.9.88-12.5,11.968-19.536t29.392-7.04a50.425,50.425,0,0,1,19.624,3.784A34.143,34.143,0,0,1-14.344-85.8Q-8.8-78.32-8.8-66.7H-26.224a14.887,14.887,0,0,0-2.464-8.888,16.485,16.485,0,0,0-6.248-5.28,27.02,27.02,0,0,0-8.008-2.464,53,53,0,0,0-7.568-.616q-8.8,0-14.52,2.992t-5.72,8.8a9.4,9.4,0,0,0,3.344,7.92,25.791,25.791,0,0,0,9.328,4.752q5.808,1.76,12.672,3.168t13.728,3.432a57.166,57.166,0,0,1,12.5,5.28,23.466,23.466,0,0,1,8.8,8.8q3.168,5.544,2.64,14.344-.7,12.5-12.144,19.448T-49.1,1.936Z" transform="translate(-9765.092 11778.348)" fill="none" stroke="#fff" stroke-width="1.5"/>
  </g>
</svg>
