<svg xmlns="http://www.w3.org/2000/svg" xmlns:xlink="http://www.w3.org/1999/xlink" width="514" height="88" viewBox="0 0 514 88">
  <defs>
    <clipPath id="clip-path">
      <rect id="Rectangle_360" data-name="Rectangle 360" width="514" height="88" transform="translate(-10361 2922)" fill="#fff" stroke="#707070" stroke-width="1"/>
    </clipPath>
  </defs>
  <g id="Mask_Group_147" data-name="Mask Group 147" transform="translate(10361 -2922)" clip-path="url(#clip-path)">
    <path id="Path_10869" data-name="Path 10869" d="M-388.2,1.48a46.067,46.067,0,0,1-21.164-4.81A36.083,36.083,0,0,1-424.39-17.612q-5.55-9.472-5.55-23.68.148-13.912,5.624-23.68a36.584,36.584,0,0,1,14.948-14.8A45.348,45.348,0,0,1-387.76-84.8q11.544,0,19.684,4.144a35.043,35.043,0,0,1,13.1,11.248,38.652,38.652,0,0,1,6.438,15.984h-15.54a18.109,18.109,0,0,0-4.81-10.286,21.085,21.085,0,0,0-8.806-5.328A33.948,33.948,0,0,0-387.76-70.6q-13.172,0-20.2,7.4t-7.03,20.868q0,14.356,6.882,22.052t20.054,7.7a33.922,33.922,0,0,0,10.656-1.7,21.043,21.043,0,0,0,8.88-5.624,19.307,19.307,0,0,0,4.736-10.582H-348.1a40.99,40.99,0,0,1-6.586,16.354A34.979,34.979,0,0,1-368-2.738Q-376.364,1.48-388.2,1.48ZM-341.732,0l26.64-83.324h24.716L-263,0h-16.132l-7.1-23.532h-32.412L-325.748,0Zm39.22-76.96-12.58,41.736h25.308Zm85.4,78.44A46.067,46.067,0,0,1-238.28-3.33,36.083,36.083,0,0,1-253.3-17.612q-5.55-9.472-5.55-23.68.148-13.912,5.624-23.68a36.584,36.584,0,0,1,14.948-14.8A45.348,45.348,0,0,1-216.672-84.8q11.544,0,19.684,4.144a35.043,35.043,0,0,1,13.1,11.248,38.652,38.652,0,0,1,6.438,15.984h-15.54a18.109,18.109,0,0,0-4.81-10.286,21.085,21.085,0,0,0-8.806-5.328A33.948,33.948,0,0,0-216.672-70.6q-13.172,0-20.2,7.4t-7.03,20.868q0,14.356,6.882,22.052t20.054,7.7a33.922,33.922,0,0,0,10.656-1.7,21.043,21.043,0,0,0,8.88-5.624A19.307,19.307,0,0,0-192.7-30.488h15.688a40.99,40.99,0,0,1-6.586,16.354,34.98,34.98,0,0,1-13.32,11.4Q-205.276,1.48-217.116,1.48ZM-170.644,0-144-83.324h24.716L-91.908,0H-108.04l-7.1-23.532h-32.412L-154.66,0Zm39.22-76.96L-144-35.224H-118.7ZM-46.472,2.072q-20.128,0-30.784-11.766T-87.912-41.44q0-13.172,4.588-22.866A33.883,33.883,0,0,1-69.486-79.4q9.25-5.4,23.014-5.4,20.424,0,30.932,11.766t10.508,31.6A51.8,51.8,0,0,1-9.768-18.722,35.185,35.185,0,0,1-23.68-3.4Q-32.856,2.072-46.472,2.072Zm-.148-14.5q13.32,0,20.054-8.288t6.734-20.72a36.284,36.284,0,0,0-2.96-15.022,23.34,23.34,0,0,0-8.88-10.36Q-37.592-70.6-46.62-70.6q-13.024,0-19.832,7.992T-73.26-41.44a36.315,36.315,0,0,0,2.886,14.726A23.33,23.33,0,0,0-61.568-16.28Q-55.648-12.432-46.62-12.432Z" transform="translate(-9930.56 3007.304)" fill="none" stroke="#fff" stroke-width="1.5"/>
  </g>
</svg>
