<svg xmlns="http://www.w3.org/2000/svg" xmlns:xlink="http://www.w3.org/1999/xlink" width="648" height="88" viewBox="0 0 648 88">
  <defs>
    <clipPath id="clip-path">
      <rect id="Rectangle_362" data-name="Rectangle 362" width="648" height="88" transform="translate(-9741 7630)" fill="#fff" stroke="#707070" stroke-width="1"/>
    </clipPath>
  </defs>
  <g id="Mask_Group_149" data-name="Mask Group 149" transform="translate(9741 -7630)" clip-path="url(#clip-path)">
    <path id="Path_10871" data-name="Path 10871" d="M-549.524,0h-15.1V-83.324h33.448q13.912,0,21.608,6.956t7.7,21.016q0,12.284-7.918,19.24t-21.386,6.956h-18.352Zm16.28-71.04h-16.28v30.784h16.28q7.992,0,12.876-3.848t4.884-11.544q0-7.844-4.81-11.618T-533.244-71.04ZM-490.028,0V-83.324h30.636q16.132,0,25.16,5.4T-425.2-58.9q0,10.212-4.884,16.5t-14.06,6.29q5.18,0,7.77,2.294a12.2,12.2,0,0,1,3.626,5.7,41.216,41.216,0,0,1,1.48,7.1,62.805,62.805,0,0,0,1.11,6.586,6.01,6.01,0,0,0,2.664,4.07q2,1.184,6.29-.444v8.732a14.961,14.961,0,0,1-6.66,3.182,13.574,13.574,0,0,1-7.548-.518,12.4,12.4,0,0,1-6.216-5.254q-2.516-3.922-2.516-11.026a58.628,58.628,0,0,0-.74-10.434,8.751,8.751,0,0,0-3.7-5.92q-2.96-2-9.176-2.516a132.82,132.82,0,0,0-17.168.074V0Zm15.1-45.436h14.948A88.74,88.74,0,0,0-448-46.1q4.736-.666,7.03-3.256t2.294-8.362q0-6.364-2.812-9.176t-8.214-3.478a110.824,110.824,0,0,0-13.246-.666h-11.988ZM-372.96,2.072q-20.128,0-30.784-11.766T-414.4-41.44q0-13.172,4.588-22.866a33.883,33.883,0,0,1,13.838-15.1q9.25-5.4,23.014-5.4,20.424,0,30.932,11.766t10.508,31.6a51.8,51.8,0,0,1-4.736,22.718A35.185,35.185,0,0,1-350.168-3.4Q-359.344,2.072-372.96,2.072Zm-.148-14.5q13.32,0,20.054-8.288t6.734-20.72a36.284,36.284,0,0,0-2.96-15.022,23.339,23.339,0,0,0-8.88-10.36q-5.92-3.774-14.948-3.774-13.024,0-19.832,7.992t-6.808,21.164a36.315,36.315,0,0,0,2.886,14.726,23.33,23.33,0,0,0,8.806,10.434Q-382.136-12.432-373.108-12.432Zm92.8,13.912a46.067,46.067,0,0,1-21.164-4.81A36.083,36.083,0,0,1-316.5-17.612q-5.55-9.472-5.55-23.68.148-13.912,5.624-23.68a36.584,36.584,0,0,1,14.948-14.8A45.348,45.348,0,0,1-279.868-84.8q11.544,0,19.684,4.144a35.043,35.043,0,0,1,13.1,11.248,38.652,38.652,0,0,1,6.438,15.984h-15.54A18.109,18.109,0,0,0-261-63.714a21.085,21.085,0,0,0-8.806-5.328A33.948,33.948,0,0,0-279.868-70.6q-13.172,0-20.2,7.4t-7.03,20.868q0,14.356,6.882,22.052t20.054,7.7a33.922,33.922,0,0,0,10.656-1.7,21.043,21.043,0,0,0,8.88-5.624,19.307,19.307,0,0,0,4.736-10.582H-240.2a40.99,40.99,0,0,1-6.586,16.354,34.98,34.98,0,0,1-13.32,11.4Q-268.472,1.48-280.312,1.48Zm66.452-13.616h46.028V0h-60.976V-83.324h59.5V-70.3H-213.86v21.9h34.188v12.432H-213.86Zm91.316,13.764A55.611,55.611,0,0,1-135.938,0a39.6,39.6,0,0,1-11.914-5.032,24.9,24.9,0,0,1-8.436-8.954,28.137,28.137,0,0,1-3.256-13.394H-144.3a17.923,17.923,0,0,0,.592,3.182,14.579,14.579,0,0,0,2.738,5.254,17.08,17.08,0,0,0,6.808,4.884q4.662,2.072,12.654,2.072,8.732,0,12.95-3.256t4.218-6.956a8.182,8.182,0,0,0-2.886-6.586,22.537,22.537,0,0,0-7.7-4q-4.81-1.554-10.508-2.886t-11.4-3.034a42.9,42.9,0,0,1-10.36-4.588,21.243,21.243,0,0,1-7.326-7.474q-2.664-4.588-2.368-11.692.74-10.508,10.064-16.428T-122.1-84.8a42.4,42.4,0,0,1,16.5,3.182A28.711,28.711,0,0,1-93.314-72.15q4.662,6.29,4.662,16.058H-103.3a12.519,12.519,0,0,0-2.072-7.474,13.862,13.862,0,0,0-5.254-4.44,22.721,22.721,0,0,0-6.734-2.072,44.569,44.569,0,0,0-6.364-.518,26.222,26.222,0,0,0-12.21,2.516q-4.81,2.516-4.81,7.4a7.908,7.908,0,0,0,2.812,6.66,21.688,21.688,0,0,0,7.844,4q4.884,1.48,10.656,2.664t11.544,2.886a48.071,48.071,0,0,1,10.508,4.44,19.733,19.733,0,0,1,7.4,7.4q2.664,4.662,2.22,12.062-.592,10.508-10.212,16.354T-122.544,1.628Zm81.252,0A55.611,55.611,0,0,1-54.686,0,39.6,39.6,0,0,1-66.6-5.032a24.9,24.9,0,0,1-8.436-8.954A28.138,28.138,0,0,1-78.292-27.38h15.244a17.923,17.923,0,0,0,.592,3.182,14.579,14.579,0,0,0,2.738,5.254A17.08,17.08,0,0,0-52.91-14.06q4.662,2.072,12.654,2.072,8.732,0,12.95-3.256t4.218-6.956a8.182,8.182,0,0,0-2.886-6.586,22.536,22.536,0,0,0-7.7-4q-4.81-1.554-10.508-2.886t-11.4-3.034a42.9,42.9,0,0,1-10.36-4.588,21.243,21.243,0,0,1-7.326-7.474q-2.664-4.588-2.368-11.692.74-10.508,10.064-16.428t24.716-5.92a42.4,42.4,0,0,1,16.5,3.182A28.711,28.711,0,0,1-12.062-72.15Q-7.4-65.86-7.4-56.092H-22.052a12.519,12.519,0,0,0-2.072-7.474,13.862,13.862,0,0,0-5.254-4.44,22.722,22.722,0,0,0-6.734-2.072,44.569,44.569,0,0,0-6.364-.518,26.222,26.222,0,0,0-12.21,2.516q-4.81,2.516-4.81,7.4a7.908,7.908,0,0,0,2.812,6.66,21.688,21.688,0,0,0,7.844,4q4.884,1.48,10.656,2.664t11.544,2.886a48.071,48.071,0,0,1,10.508,4.44,19.733,19.733,0,0,1,7.4,7.4q2.664,4.662,2.22,12.062Q-7.1-10.064-16.724-4.218T-41.292,1.628Z" transform="translate(-9175.88 7715.304)" fill="none" stroke="#fff" stroke-width="1.5"/>
  </g>
</svg>
