<svg xmlns="http://www.w3.org/2000/svg" xmlns:xlink="http://www.w3.org/1999/xlink" width="648" height="114" viewBox="0 0 648 114">
  <defs>
    <clipPath id="clip-path">
      <rect id="Rectangle_373" data-name="Rectangle 373" width="648" height="114" transform="translate(-10433 7278)" fill="#fff" stroke="#707070" stroke-width="1"/>
    </clipPath>
  </defs>
  <g id="Mask_Group_148" data-name="Mask Group 148" transform="translate(10433 -7278)" clip-path="url(#clip-path)">
    <path id="Path_13844" data-name="Path 13844" d="M40.848,1.628A55.611,55.611,0,0,1,27.454,0,39.6,39.6,0,0,1,15.54-5.032,24.9,24.9,0,0,1,7.1-13.986,28.138,28.138,0,0,1,3.848-27.38H19.092a17.923,17.923,0,0,0,.592,3.182,14.579,14.579,0,0,0,2.738,5.254A17.08,17.08,0,0,0,29.23-14.06q4.662,2.072,12.654,2.072,8.732,0,12.95-3.256T59.052-22.2a8.182,8.182,0,0,0-2.886-6.586,22.536,22.536,0,0,0-7.7-4q-4.81-1.554-10.508-2.886T26.566-38.7a42.9,42.9,0,0,1-10.36-4.588A21.243,21.243,0,0,1,8.88-50.764Q6.216-55.352,6.512-62.456q.74-10.508,10.064-16.428T41.292-84.8a42.4,42.4,0,0,1,16.5,3.182A28.711,28.711,0,0,1,70.078-72.15q4.662,6.29,4.662,16.058H60.088a12.519,12.519,0,0,0-2.072-7.474,13.862,13.862,0,0,0-5.254-4.44,22.722,22.722,0,0,0-6.734-2.072,44.569,44.569,0,0,0-6.364-.518,26.222,26.222,0,0,0-12.21,2.516q-4.81,2.516-4.81,7.4a7.908,7.908,0,0,0,2.812,6.66,21.688,21.688,0,0,0,7.844,4q4.884,1.48,10.656,2.664T55.5-44.474a48.071,48.071,0,0,1,10.508,4.44,19.733,19.733,0,0,1,7.4,7.4q2.664,4.662,2.22,12.062Q75.036-10.064,65.416-4.218T40.848,1.628Zm84.508.444q-20.128,0-30.784-11.766T83.916-41.44q0-13.172,4.588-22.866a33.883,33.883,0,0,1,13.838-15.1q9.25-5.4,23.014-5.4,20.424,0,30.932,11.766T166.8-41.44a51.8,51.8,0,0,1-4.736,22.718A35.185,35.185,0,0,1,148.148-3.4Q138.972,2.072,125.356,2.072Zm-.148-14.5q13.32,0,20.054-8.288T152-41.44a36.284,36.284,0,0,0-2.96-15.022,23.34,23.34,0,0,0-8.88-10.36q-5.92-3.774-14.948-3.774-13.024,0-19.832,7.992T98.568-41.44a36.315,36.315,0,0,0,2.886,14.726A23.33,23.33,0,0,0,110.26-16.28Q116.18-12.432,125.208-12.432ZM104.932-92.5v-1.184L122.4-109.816h6.364l17.464,16.132V-92.5H132.756l-6.808-7.548h-.74L118.7-92.5ZM246.864,1.48A46.067,46.067,0,0,1,225.7-3.33a36.083,36.083,0,0,1-15.022-14.282q-5.55-9.472-5.55-23.68.148-13.912,5.624-23.68a36.584,36.584,0,0,1,14.948-14.8A45.348,45.348,0,0,1,247.308-84.8q11.544,0,19.684,4.144a35.043,35.043,0,0,1,13.1,11.248,38.652,38.652,0,0,1,6.438,15.984h-15.54a18.109,18.109,0,0,0-4.81-10.286,21.085,21.085,0,0,0-8.806-5.328A33.948,33.948,0,0,0,247.308-70.6q-13.172,0-20.2,7.4t-7.03,20.868q0,14.356,6.882,22.052t20.054,7.7a33.922,33.922,0,0,0,10.656-1.7,21.043,21.043,0,0,0,8.88-5.624,19.307,19.307,0,0,0,4.736-10.582h15.688a40.99,40.99,0,0,1-6.586,16.354,34.979,34.979,0,0,1-13.32,11.4Q258.7,1.48,246.864,1.48Zm87.764.592q-20.128,0-30.784-11.766T293.188-41.44q0-13.172,4.588-22.866a33.883,33.883,0,0,1,13.838-15.1q9.25-5.4,23.014-5.4,20.424,0,30.932,11.766t10.508,31.6a51.8,51.8,0,0,1-4.736,22.718A35.185,35.185,0,0,1,357.42-3.4Q348.244,2.072,334.628,2.072Zm-.148-14.5q13.32,0,20.054-8.288t6.734-20.72a36.284,36.284,0,0,0-2.96-15.022,23.339,23.339,0,0,0-8.88-10.36Q343.508-70.6,334.48-70.6q-13.024,0-19.832,7.992T307.84-41.44a36.315,36.315,0,0,0,2.886,14.726,23.33,23.33,0,0,0,8.806,10.434Q325.452-12.432,334.48-12.432ZM314.2-92.5v-1.184l17.464-16.132h6.364L355.5-93.684V-92.5H342.028l-6.808-7.548h-.74L327.968-92.5ZM420.912,0V-83.324h15.1v70.448h41.144V0Zm62.16,0,26.64-83.324h24.716L561.808,0H545.676l-7.1-23.532H506.16L499.056,0Zm39.22-76.96-12.58,41.736H535.02Z" transform="translate(-10436.348 7389.316)" fill="none" stroke="#fff" stroke-width="1.5"/>
  </g>
</svg>
