<svg xmlns="http://www.w3.org/2000/svg" xmlns:xlink="http://www.w3.org/1999/xlink" width="817" height="88" viewBox="0 0 817 88">
  <defs>
    <clipPath id="clip-path">
      <rect id="Rectangle_361" data-name="Rectangle 361" width="817" height="88" transform="translate(-9928 6834)" fill="#fff" stroke="#707070" stroke-width="1"/>
    </clipPath>
  </defs>
  <g id="Mask_Group_148" data-name="Mask Group 148" transform="translate(9928 -6834)" clip-path="url(#clip-path)">
    <path id="Path_10870" data-name="Path 10870" d="M-691.012,1.48a46.067,46.067,0,0,1-21.164-4.81A36.083,36.083,0,0,1-727.2-17.612q-5.55-9.472-5.55-23.68.148-13.912,5.624-23.68a36.585,36.585,0,0,1,14.948-14.8A45.349,45.349,0,0,1-690.568-84.8q11.544,0,19.684,4.144a35.044,35.044,0,0,1,13.1,11.248,38.651,38.651,0,0,1,6.438,15.984h-15.54a18.109,18.109,0,0,0-4.81-10.286,21.085,21.085,0,0,0-8.806-5.328A33.948,33.948,0,0,0-690.568-70.6q-13.172,0-20.2,7.4t-7.03,20.868q0,14.356,6.882,22.052t20.054,7.7a33.922,33.922,0,0,0,10.656-1.7,21.044,21.044,0,0,0,8.88-5.624,19.307,19.307,0,0,0,4.736-10.582H-650.9a40.989,40.989,0,0,1-6.586,16.354,34.98,34.98,0,0,1-13.32,11.4Q-679.172,1.48-691.012,1.48ZM-623.524,0h-15.244V-83.324h15.244v35.076h39.516V-83.324h15.1V0h-15.1V-36.556h-39.516Zm106.412,2.072q-20.128,0-30.784-11.766T-558.552-41.44q0-13.172,4.588-22.866a33.883,33.883,0,0,1,13.838-15.1q9.25-5.4,23.014-5.4,20.424,0,30.932,11.766t10.508,31.6a51.8,51.8,0,0,1-4.736,22.718A35.185,35.185,0,0,1-494.32-3.4Q-503.5,2.072-517.112,2.072Zm-.148-14.5q13.32,0,20.054-8.288t6.734-20.72a36.284,36.284,0,0,0-2.96-15.022,23.339,23.339,0,0,0-8.88-10.36q-5.92-3.774-14.948-3.774-13.024,0-19.832,7.992T-543.9-41.44a36.315,36.315,0,0,0,2.886,14.726,23.33,23.33,0,0,0,8.806,10.434Q-526.288-12.432-517.26-12.432Zm92.8,13.912a46.067,46.067,0,0,1-21.164-4.81A36.083,36.083,0,0,1-460.65-17.612q-5.55-9.472-5.55-23.68.148-13.912,5.624-23.68a36.584,36.584,0,0,1,14.948-14.8A45.348,45.348,0,0,1-424.02-84.8q11.544,0,19.684,4.144a35.043,35.043,0,0,1,13.1,11.248A38.652,38.652,0,0,1-384.8-53.428h-15.54a18.109,18.109,0,0,0-4.81-10.286,21.085,21.085,0,0,0-8.806-5.328A33.948,33.948,0,0,0-424.02-70.6q-13.172,0-20.2,7.4t-7.03,20.868q0,14.356,6.882,22.052t20.054,7.7a33.922,33.922,0,0,0,10.656-1.7,21.043,21.043,0,0,0,8.88-5.624,19.307,19.307,0,0,0,4.736-10.582h15.688a40.99,40.99,0,0,1-6.586,16.354,34.979,34.979,0,0,1-13.32,11.4Q-412.624,1.48-424.464,1.48Zm87.764.592q-20.128,0-30.784-11.766T-378.14-41.44q0-13.172,4.588-22.866a33.883,33.883,0,0,1,13.838-15.1q9.25-5.4,23.014-5.4,20.424,0,30.932,11.766t10.508,31.6A51.8,51.8,0,0,1-300-18.722,35.185,35.185,0,0,1-313.908-3.4Q-323.084,2.072-336.7,2.072Zm-.148-14.5q13.32,0,20.054-8.288t6.734-20.72a36.284,36.284,0,0,0-2.96-15.022,23.339,23.339,0,0,0-8.88-10.36q-5.92-3.774-14.948-3.774-13.024,0-19.832,7.992t-6.808,21.164A36.315,36.315,0,0,0-360.6-26.714,23.33,23.33,0,0,0-351.8-16.28Q-345.876-12.432-336.848-12.432ZM-281.792,0V-83.324h15.1v70.448h41.144V0Zm62.16,0,26.64-83.324h24.716L-140.9,0h-16.132l-7.1-23.532h-32.412L-203.648,0Zm39.22-76.96-12.58,41.736h25.308Zm37.888,6.66V-83.324h64.38V-70.3H-102.86V0h-15.1V-70.3Zm91.168,58.164H-5.328V0H-66.3V-83.324h59.5V-70.3H-51.356v21.9h34.188v12.432H-51.356Z" transform="translate(-9194.752 6919.304)" fill="none" stroke="#fff" stroke-width="1.5"/>
  </g>
</svg>
