<svg xmlns="http://www.w3.org/2000/svg" xmlns:xlink="http://www.w3.org/1999/xlink" width="629" height="109" viewBox="0 0 629 109">
  <defs>
    <clipPath id="clip-path">
      <rect id="Rectangle_377" data-name="Rectangle 377" width="629" height="109" transform="translate(-10023 12508)" fill="#fff" stroke="#707070" stroke-width="1"/>
    </clipPath>
  </defs>
  <g id="Mask_Group_152" data-name="Mask Group 152" transform="translate(10023 -12508)" clip-path="url(#clip-path)">
    <path id="Path_13848" data-name="Path 13848" d="M65.564-83.324H81.252V0H52.54L23.976-76.664h-.3V0H8.14V-83.324H34.78L65.268-6.66h.3ZM112.628,0H97.384V-83.324h15.244v35.076h39.516V-83.324h15.1V0h-15.1V-36.556H112.628Zm65.12,0,26.64-83.324H229.1L256.484,0H240.352l-7.1-23.532H200.836L193.732,0Zm39.22-76.96-12.58,41.736H229.7Zm-3.7-13.32-12.58-14.06V-107h12.728l6.66,14.8v1.924ZM297.776,0V-83.324H324.12L343.656-6.512h.3L363.34-83.324h26.2V0H373.848l1.036-76.516h-.148L354.756,0h-22.2L312.872-76.516h-.3L313.464,0ZM399.748,0l26.64-83.324H451.1L478.484,0H462.352l-7.1-23.532H422.836L415.732,0Zm39.22-76.96-12.58,41.736H451.7Zm2.812-13.32h-6.808V-92.2l6.66-14.8H454.36v2.664ZM502.9,0V-29.452L474.488-83.324H491.36l19.388,40.7,19.092-40.7h16.872L517.852-29.6V0Z" transform="translate(-10029.64 12615.504)" fill="none" stroke="#fff" stroke-width="1.5"/>
  </g>
</svg>
