<svg xmlns="http://www.w3.org/2000/svg" xmlns:xlink="http://www.w3.org/1999/xlink" width="713" height="134" viewBox="0 0 713 134">
  <defs>
    <clipPath id="clip-path">
      <rect id="Rectangle_375" data-name="Rectangle 375" width="713" height="134" transform="translate(-10474 9295)" fill="#fff" stroke="#707070" stroke-width="1"/>
    </clipPath>
  </defs>
  <g id="Mask_Group_150" data-name="Mask Group 150" transform="translate(10474 -9295)" clip-path="url(#clip-path)">
    <path id="Path_13846" data-name="Path 13846" d="M40.848,1.628A55.611,55.611,0,0,1,27.454,0,39.6,39.6,0,0,1,15.54-5.032,24.9,24.9,0,0,1,7.1-13.986,28.138,28.138,0,0,1,3.848-27.38H19.092a17.923,17.923,0,0,0,.592,3.182,14.579,14.579,0,0,0,2.738,5.254A17.08,17.08,0,0,0,29.23-14.06q4.662,2.072,12.654,2.072,8.732,0,12.95-3.256T59.052-22.2a8.182,8.182,0,0,0-2.886-6.586,22.536,22.536,0,0,0-7.7-4q-4.81-1.554-10.508-2.886T26.566-38.7a42.9,42.9,0,0,1-10.36-4.588A21.243,21.243,0,0,1,8.88-50.764Q6.216-55.352,6.512-62.456q.74-10.508,10.064-16.428T41.292-84.8a42.4,42.4,0,0,1,16.5,3.182A28.711,28.711,0,0,1,70.078-72.15q4.662,6.29,4.662,16.058H60.088a12.519,12.519,0,0,0-2.072-7.474,13.862,13.862,0,0,0-5.254-4.44,22.722,22.722,0,0,0-6.734-2.072,44.569,44.569,0,0,0-6.364-.518,26.222,26.222,0,0,0-12.21,2.516q-4.81,2.516-4.81,7.4a7.908,7.908,0,0,0,2.812,6.66,21.688,21.688,0,0,0,7.844,4q4.884,1.48,10.656,2.664T55.5-44.474a48.071,48.071,0,0,1,10.508,4.44,19.733,19.733,0,0,1,7.4,7.4q2.664,4.662,2.22,12.062Q75.036-10.064,65.416-4.218T40.848,1.628ZM84.064,0,110.7-83.324H135.42L162.8,0H146.668l-7.1-23.532H107.152L100.048,0Zm39.22-76.96L110.7-35.224h25.308Zm-4.736-14.652v-2.22a7.858,7.858,0,0,1,3.182-3.33,46.912,46.912,0,0,0,4.292-2.96,5.059,5.059,0,0,0,2-4.218,3.116,3.116,0,0,0-2.22-3.182,7.515,7.515,0,0,0-4.884,0,5.547,5.547,0,0,0-3.7,3.626l-6.216-4a11.255,11.255,0,0,1,4-6.29,15.109,15.109,0,0,1,6.734-2.96,15.936,15.936,0,0,1,7.326.37A11.725,11.725,0,0,1,134.9-113a10.575,10.575,0,0,1,2.294,7.03q0,4.44-1.924,6.734a25.272,25.272,0,0,1-4.07,3.922,8.118,8.118,0,0,0-2.886,3.7ZM229.7-83.324h15.688V0H216.672L188.108-76.664h-.3V0h-15.54V-83.324h26.64L229.4-6.66h.3ZM307.84,0h-15.1V-83.324h33.448q13.912,0,21.608,6.956t7.7,21.016q0,12.284-7.918,19.24t-21.386,6.956H307.84Zm16.28-71.04H307.84v30.784h16.28q7.992,0,12.876-3.848t4.884-11.544q0-7.844-4.81-11.618T324.12-71.04ZM380.952,0H365.708V-83.324h15.244v35.076h39.516V-83.324h15.1V0h-15.1V-36.556H380.952Zm65.12,0,26.64-83.324h24.716L524.808,0H508.676l-7.1-23.532H469.16L462.056,0Zm39.22-76.96-12.58,41.736H498.02ZM464.72-91.168v-1.184l17.464-16.132h6.364l17.464,16.132v1.184H492.544l-6.808-7.548H485l-6.512,7.548Zm33.6-13.764v-2.22a7.859,7.859,0,0,1,3.182-3.33,46.911,46.911,0,0,0,4.292-2.96,5.059,5.059,0,0,0,2-4.218,3.116,3.116,0,0,0-2.22-3.182,7.515,7.515,0,0,0-4.884,0,5.547,5.547,0,0,0-3.7,3.626l-6.216-4a11.255,11.255,0,0,1,4-6.29,15.109,15.109,0,0,1,6.734-2.96,15.936,15.936,0,0,1,7.326.37,11.725,11.725,0,0,1,5.846,3.774,10.575,10.575,0,0,1,2.294,7.03q0,4.44-1.924,6.734a25.27,25.27,0,0,1-4.07,3.922,8.118,8.118,0,0,0-2.886,3.7ZM534.724,0V-83.324h26.344L580.6-6.512h.3l19.388-76.812h26.2V0H610.8l1.036-76.516h-.148L591.7,0H569.5L549.82-76.516h-.3L550.412,0Z" transform="translate(-10476.348 9427.223)" fill="none" stroke="#fff" stroke-width="1.5"/>
  </g>
</svg>
